<?xml version="1.0" encoding="UTF-8" standalone="no"?>
<svg width="380px" height="380px" viewBox="0 0 380 380" version="1.1" xmlns="http://www.w3.org/2000/svg" xmlns:xlink="http://www.w3.org/1999/xlink" xmlns:sketch="http://www.bohemiancoding.com/sketch/ns">
    <!-- Generator: Sketch 3.3.2 (12043) - http://www.bohemiancoding.com/sketch -->
    <title>Diagram</title>
    <desc>Created with Sketch.</desc>
    <defs></defs>
    <g id="Account-Management" stroke="none" stroke-width="1" fill="none" fill-rule="evenodd" sketch:type="MSPage">
        <g id="Home" sketch:type="MSArtboardGroup" transform="translate(-166.000000, -917.000000)" fill="#000000">
            <g id="Approach" sketch:type="MSLayerGroup" transform="translate(166.000000, 730.000000)">
                <g id="Diagram" transform="translate(0.000000, 187.000000)" sketch:type="MSShapeGroup">
                    <path d="M189.755851,6.09377644 C201.749386,6.09377644 213.809124,7.27434038 225.600604,9.60294058 C237.352286,11.9238872 248.926405,15.4024371 260.001893,19.9421551 C282.69283,29.2427795 302.946485,42.7069486 320.199557,59.9604028 C342.502457,82.2633031 358.785438,110.238268 367.288177,140.860987 C375.48286,170.375086 376.22717,201.535851 369.47289,231.20149 L317.042457,245.652971 L278.437825,206.499577 C280.962739,192.773273 280.243686,178.493233 276.325438,165.000363 C272.102195,150.456657 264.25422,137.153595 253.630292,126.529668 C245.199496,118.098489 235.30993,111.522155 224.236737,106.983202 C213.304371,102.502034 201.774642,100.229688 189.96709,100.229688 C188.223988,100.229688 186.476677,100.280967 184.730896,100.383142 L198.926365,48.861571 C199.478953,46.856717 198.903404,44.7095065 197.422437,43.2492044 L161.886123,8.21802618 C171.097966,6.80670695 180.432649,6.09377644 189.755851,6.09377644 M189.755851,0.353595166 C176.506365,0.353595166 163.184935,1.73812689 150.006244,4.5672709 L193.392447,47.3369789 L176.958691,106.980906 C181.286022,106.303948 185.638228,105.969869 189.96709,105.969869 C212.033877,105.969869 233.611984,114.629124 249.571601,130.588741 C269.858933,150.876073 278.383867,180.412749 272.206284,208.355569 L315.32002,252.081974 L374.27283,235.832669 C390.176576,171.482558 371.163565,102.806264 324.25863,55.9013293 C288.267694,19.9103927 239.538147,0.353595166 189.755851,0.353595166" id="Fill-1"></path>
                    <path d="M135.930554,14.156435 L174.676395,52.3523666 L160.075287,105.350312 C147.493575,109.802397 135.934763,117.082095 126.488721,126.527754 C110.703605,142.313253 101.405277,163.307774 100.306989,185.64435 C99.3606244,204.881611 104.538268,223.729688 114.990373,239.581772 L63.3103726,253.037905 C61.2974824,253.562175 59.7254381,255.133837 59.2015509,257.14711 L46.6290232,305.449204 C34.0159315,289.804149 24.1527694,272.337925 17.2480967,253.394562 C9.35496475,231.740302 5.62040282,209.020665 6.14811682,185.867069 C6.67736153,162.664874 11.463142,140.106344 20.373434,118.818308 C29.5986707,96.7775428 42.9036455,76.9743001 59.9194562,59.9588721 C81.1623364,38.7159919 107.382719,22.9266667 135.930554,14.156435 M137.546224,7.68878147 C106.804874,16.5152669 78.6202014,33.1403625 55.8607654,55.8997986 C-15.9240282,127.684592 -18.0758308,243.134945 49.4153072,317.531903 L64.7568983,258.59287 L124.603646,243.010191 C97.8712387,209.987694 99.8516012,161.283021 130.547795,130.586828 C140.127392,121.007231 151.914663,113.871803 164.796395,109.824592 L181.105398,50.6291641 L137.546224,7.68878147" id="Fill-2"></path>
                    <path d="M270.444814,230.368016 L307.94006,268.399013 C309.033374,269.508016 310.512044,270.109204 312.027835,270.109204 C312.536415,270.109204 313.049204,270.04147 313.553192,269.902558 L361.684995,256.635468 C352.469325,280.356193 338.263142,302.175005 320.199557,320.23859 C302.670574,337.767573 282.204914,351.339658 259.370473,360.577905 C237.314401,369.501591 213.994723,374.026002 190.05855,374.026002 C166.684149,374.026002 143.866546,369.700584 122.240222,361.169909 C100.910091,352.756334 81.5890232,340.564189 64.7630211,324.90574 L78.4579456,272.293917 L131.659476,258.439416 C147.885438,272.314965 168.50149,279.921088 190.064673,279.921088 C201.752064,279.921088 213.141349,277.713414 223.916435,273.35853 C235.081088,268.846365 245.07857,262.221813 253.630675,253.669708 C260.510473,246.789909 266.14427,238.978288 270.444814,230.368016 M268.603746,220.324995 C264.395811,231.268459 257.916677,241.266324 249.571984,249.611017 C233.19716,265.985841 211.632064,274.180906 190.064673,274.180906 C169.635368,274.180906 149.204532,266.829648 133.174119,252.113353 L73.7513797,267.587734 L58.3539174,326.741067 C95.009567,362.090634 142.54286,379.766183 190.05855,379.766183 C238.677503,379.766183 287.278852,361.277059 324.25863,324.297664 C345.639658,302.916636 361.595065,276.760544 370.770937,248.176737 L312.027835,264.369023 L268.603746,220.324995" id="Fill-3"></path>
                    <path d="M247.15996,46.9271299 L258.383162,53.1349446 L256.422699,56.6793152 L248.965055,52.5544209 L244.697422,60.2703726 L251.195307,63.8644914 L249.234844,67.408862 L242.736959,63.8147432 L238.469325,71.5306949 L245.926969,75.6555891 L243.844048,79.4215307 L232.620846,73.213716 L247.15996,46.9271299" id="Fill-4"></path>
                    <path d="M258.62999,70.5579255 L262.483182,55.6851158 L266.172205,58.3600403 L263.576113,67.4735347 L271.466183,62.1986908 L275.154824,64.8732326 L262.113897,73.0839879 L257.896777,89.4649345 L254.207754,86.7900101 L257.112286,76.3884189 L248.162578,82.406425 L244.473555,79.7315005 L258.62999,70.5579255" id="Fill-5"></path>
                    <path d="M279.793273,68.8515609 L289.18,77.5923263 L286.419738,80.5561732 L280.182457,74.7482578 L274.173635,81.2017523 L279.608056,86.2619134 L276.847795,89.226143 L271.413374,84.1659819 L265.404552,90.6194763 L271.641833,96.4270091 L268.709366,99.5764552 L259.322638,90.8364552 L279.793273,68.8515609" id="Fill-6"></path>
                    <path d="M284.508258,107.810171 C283.79571,108.404471 283.0028,108.837281 282.129909,109.108218 C281.256254,109.378771 280.378771,109.479416 279.496697,109.410151 C278.61424,109.340886 277.761249,109.1086 276.938489,108.715589 C276.114965,108.321813 275.397059,107.757362 274.784391,107.023766 C274.261269,106.396939 273.816596,105.688218 273.448459,104.896455 C273.080322,104.104693 272.890514,103.273515 272.879033,102.404068 C272.867553,101.53424 273.066928,100.643746 273.479456,99.7322054 C273.890453,98.8206647 274.625579,97.9236657 275.683686,97.0400604 L288.380584,86.4421551 C289.135992,85.8115005 289.946506,85.3553474 290.810594,85.0736959 C291.674683,84.7920443 292.541833,84.6902518 293.413958,84.7690836 C294.284935,84.8475327 295.130272,85.1035448 295.950735,85.5367372 C296.77005,85.9699295 297.513595,86.5860423 298.180222,87.3850755 C298.811259,88.1408661 299.262054,88.9555891 299.532991,89.8284794 C299.803162,90.7017523 299.89424,91.5780866 299.805076,92.4590131 C299.715529,93.3391742 299.443444,94.198288 298.988822,95.0363545 C298.533817,95.8736556 297.906606,96.6263847 297.107956,97.2930111 L295.812588,98.3748439 L293.054622,95.0707956 L294.155972,94.1516012 C294.803847,93.6108761 295.211782,92.9584089 295.380544,92.1953474 C295.54854,91.431138 295.372125,90.736576 294.849386,90.1105136 C294.164391,89.289285 293.455287,88.9563545 292.723223,89.1098087 C291.99001,89.2636455 291.235368,89.6646928 290.458147,90.313716 L278.668197,100.154683 C277.99851,100.713776 277.558812,101.327976 277.349104,101.998046 C277.13863,102.668117 277.348721,103.380282 277.979758,104.136455 C278.159617,104.351903 278.391138,104.553192 278.674703,104.738409 C278.95712,104.923243 279.270151,105.046465 279.614562,105.107311 C279.95859,105.16854 280.335529,105.137543 280.746526,105.014703 C281.156757,104.892246 281.588802,104.641208 282.042276,104.262739 L283.176153,103.316757 L285.933353,106.620423 L284.508258,107.810171" id="Fill-7"></path>
                    <path d="M294.488137,123.090151 C293.653897,123.614038 292.78292,123.944673 291.874058,124.083968 C290.964814,124.223263 290.07432,124.193414 289.201813,123.994038 C288.329305,123.794663 287.513434,123.435327 286.755347,122.914502 C285.997261,122.394441 285.363162,121.728963 284.854965,120.91998 C284.346002,120.109849 284.022638,119.24997 283.883343,118.34149 C283.743666,117.432628 283.77428,116.541752 283.973656,115.668862 C284.173031,114.796737 284.532367,113.980483 285.05281,113.222397 C285.57287,112.46431 286.249446,111.823706 287.083686,111.299819 L306.806183,98.9140383 L309.094602,102.558671 L289.729527,114.719819 C288.824109,115.288479 288.292185,115.92143 288.132608,116.619436 C287.973031,117.317442 288.095106,117.988278 288.499215,118.631178 C288.903323,119.274079 289.453998,119.675509 290.152004,119.835086 C290.85001,119.994663 291.651339,119.790312 292.556757,119.221652 L311.921833,107.060504 L314.210634,110.704753 L294.488137,123.090151" id="Fill-8"></path>
                    <path d="M315.351017,121.867492 L313.243605,117.356858 L316.913112,115.642457 L322.949486,128.562075 L319.27998,130.276475 L317.172568,125.765841 L293.626727,136.767472 L291.805176,132.868741 L315.351017,121.867492" id="Fill-9"></path>
                    <path d="M324.640161,133.226546 L326.107351,137.272226 L297.867956,147.514622 L296.400765,143.469325 L324.640161,133.226546" id="Fill-10"></path>
                    <path d="M321.570312,145.761571 C322.743223,145.468056 323.831561,145.412951 324.834562,145.597402 C325.83718,145.781088 326.715428,146.133535 327.469688,146.655509 C328.223182,147.1771 328.85422,147.816173 329.363182,148.573494 C329.87138,149.330816 330.23148,150.132145 330.443484,150.977865 C330.655106,151.823585 330.714421,152.699919 330.622961,153.608016 C330.530735,154.515347 330.275488,155.376375 329.856073,156.191863 C329.436274,157.006969 328.828197,157.731762 328.030312,158.367009 C327.232044,159.00149 326.246264,159.46568 325.073353,159.759194 L309.68431,163.610091 C308.483464,163.910876 307.38862,163.96713 306.399778,163.78 C305.410554,163.592487 304.538812,163.237744 303.784935,162.716536 C303.030292,162.194179 302.399637,161.555106 301.89144,160.798167 C301.383243,160.040846 301.022759,159.239134 300.811521,158.393797 C300.599517,157.548077 300.539819,156.670977 300.631662,155.764028 C300.723122,154.856314 300.978751,153.995287 301.39855,153.180181 C301.817583,152.36431 302.419537,151.641813 303.204028,151.010393 C303.988137,150.379355 304.980423,149.913635 306.181269,149.613233 L321.570312,145.761571 L321.570312,145.761571 Z M307.226365,153.787875 C306.216475,154.04006 305.542578,154.50578 305.205438,155.184653 C304.867915,155.863525 304.794824,156.584874 304.986163,157.349084 C305.17712,158.112528 305.581229,158.714481 306.198872,159.154945 C306.816133,159.59426 307.629708,159.688016 308.639597,159.435448 L324.02864,155.584169 C325.037764,155.331984 325.711279,154.865881 326.049184,154.187009 C326.386324,153.508137 326.459799,152.786405 326.268459,152.022961 C326.077503,151.258751 325.672628,150.656798 325.05575,150.217482 C324.437724,149.777019 323.624149,149.683646 322.615025,149.936213 L307.226365,153.787875 L307.226365,153.787875 Z" id="Fill-11"></path>
                    <path d="M333.318933,165.606526 L333.761309,169.717261 L316.460403,178.113615 L316.469587,178.197422 L334.465055,176.26145 L334.925801,180.540564 L305.058489,183.753535 L304.625297,179.726606 L321.874924,171.251037 L321.86574,171.166848 L303.912367,173.098993 L303.451621,168.819879 L333.318933,165.606526" id="Fill-12"></path>
                    <path d="M137.868056,328.338751 L134.747311,326.726526 L142.475891,299.437704 L146.221168,301.372528 L140.125478,320.059114 L140.194743,320.095086 L151.943364,304.329104 L155.688258,306.263927 L137.868056,328.338751" id="Fill-13"></path>
                    <path d="M160.468298,307.890695 L163.59861,308.990514 L160.240604,337.268177 L156.48423,335.948318 L157.359416,329.925337 L152.240705,328.12713 L149.155932,333.373273 L145.399557,332.053414 L160.468298,307.890695 L160.468298,307.890695 Z M159.399094,315.996596 L159.325619,315.970574 L154.14568,324.824612 L157.902054,326.144854 L159.399094,315.996596 L159.399094,315.996596 Z" id="Fill-14"></path>
                    <path d="M171.029084,311.285055 L174.936616,312.048499 L170.372407,335.417543 L178.110937,336.928741 L177.347492,340.836274 L165.70143,338.561631 L171.029084,311.285055" id="Fill-15"></path>
                    <path d="M185.395227,313.689809 L189.36284,314.025801 L187.017402,341.718731 L183.050171,341.382356 L185.395227,313.689809" id="Fill-16"></path>
                    <path d="M193.138348,314.386667 L199.029305,314.195327 C201.292085,314.121853 203.042075,314.696254 204.279275,315.91853 C205.516475,317.141954 206.172004,318.883907 206.245861,321.146687 L206.667573,334.137865 C206.752145,336.738933 206.183867,338.677583 204.962739,339.953817 C203.740846,341.230433 201.946848,341.906626 199.580363,341.983545 L194.040705,342.163404 L193.138348,314.386667 L193.138348,314.386667 Z M197.898107,338.288781 L199.731903,338.229466 C200.850091,338.193112 201.634582,337.888117 202.084612,337.313333 C202.534642,336.738933 202.740141,335.853797 202.701108,334.657543 L202.266385,321.276032 C202.230796,320.183484 201.982054,319.345801 201.520926,318.76145 C201.059033,318.178248 200.243545,317.905015 199.072931,317.9429 L197.239517,318.002216 L197.898107,338.288781 L197.898107,338.288781 Z" id="Fill-17"></path>
                    <path d="M213.178852,312.837583 L216.441571,312.235247 L227.589386,338.438792 L223.674199,339.161289 L221.43859,333.501088 L216.1029,334.486103 L216.035549,340.57146 L212.120363,341.293958 L213.178852,312.837583 L213.178852,312.837583 Z M216.281611,320.401994 L216.205076,320.416153 L216.113998,330.673474 L220.029184,329.950594 L216.281611,320.401994 L216.281611,320.401994 Z" id="Fill-18"></path>
                    <path d="M225.824089,313.788922 L221.426727,315.16006 L220.311219,311.582779 L232.905942,307.654965 L234.021833,311.231863 L229.624854,312.603384 L236.784008,335.557221 L232.98286,336.742377 L225.824089,313.788922" id="Fill-19"></path>
                    <path d="M234.640624,306.759114 L238.299033,305.187835 L249.266224,330.723988 L245.607815,332.295267 L234.640624,306.759114" id="Fill-20"></path>
                    <path d="M244.861974,309.529708 C244.301349,308.561531 243.974924,307.607513 243.882316,306.668802 C243.790091,305.729708 243.879637,304.859114 244.151339,304.055488 C244.422659,303.251863 244.830211,302.527452 245.373998,301.881873 C245.917402,301.237059 246.538107,300.712024 247.236495,300.307915 C247.934119,299.903807 248.698711,299.62713 249.529124,299.47712 C250.359537,299.327492 251.190332,299.335146 252.022659,299.499698 C252.854985,299.664632 253.654783,300.020524 254.42282,300.568137 C255.190856,301.11575 255.855186,301.87422 256.415428,302.842397 L263.767452,315.544653 C264.341088,316.536173 264.670957,317.495166 264.756677,318.422397 C264.842397,319.35001 264.749406,320.216012 264.477704,321.018872 C264.206385,321.823263 263.798832,322.547291 263.255045,323.192487 C262.711259,323.837684 262.090554,324.362336 261.392548,324.766445 C260.694542,325.170554 259.92995,325.447613 259.099919,325.597241 C258.269507,325.747633 257.438711,325.740363 256.606385,325.574663 C255.774058,325.410493 254.977704,325.059577 254.216173,324.522679 C253.455025,323.986928 252.787633,323.223102 252.213615,322.231964 L244.861974,309.529708 L244.861974,309.529708 Z M255.659637,320.237442 C256.141813,321.071299 256.727694,321.551178 257.417664,321.677462 C258.107251,321.805277 258.767754,321.685881 259.398409,321.320806 C260.028681,320.95573 260.461108,320.442941 260.694542,319.780906 C260.927976,319.12002 260.803988,318.372649 260.32143,317.539174 L252.969789,304.836918 C252.487613,304.003827 251.900967,303.523948 251.21138,303.396516 C250.521793,303.270232 249.861289,303.388862 249.231017,303.753555 C248.59998,304.119013 248.167936,304.632568 247.934502,305.293072 C247.700685,305.954723 247.825438,306.702095 248.307613,307.535186 L255.659637,320.237442 L255.659637,320.237442 Z" id="Fill-21"></path>
                    <path d="M255.471742,295.574562 L258.436354,293.15718 L273.677301,302.336495 L273.737764,302.28713 L263.155549,289.309345 L266.241088,286.793233 L283.804129,308.332306 L280.89998,310.700322 L265.623444,301.600604 L265.562598,301.64997 L276.11994,314.597905 L273.034401,317.113635 L255.471742,295.574562" id="Fill-22"></path>
                    <path d="M50.3325881,191.843746 L50.5947231,196.138933 L49.6261631,196.198248 C48.6434441,196.257946 47.8084391,196.541511 47.1207654,197.048177 C46.4330916,197.555227 46.1223565,198.356173 46.1893253,199.451017 C46.2252971,200.040725 46.3672709,200.518308 46.6144814,200.883384 C46.8628399,201.248459 47.1682175,201.526284 47.5317623,201.714945 C47.8960725,201.903988 48.3120443,202.026828 48.7800604,202.082699 C49.2484592,202.138953 49.7352266,202.151198 50.2407452,202.120584 C50.8304532,202.084612 51.3275529,202.033333 51.7316616,201.966365 C52.1365358,201.899396 52.4809466,201.772729 52.7652769,201.585982 C53.0499899,201.399617 53.2949043,201.138248 53.4996375,200.801873 C53.705136,200.465498 53.9022155,200.009728 54.0924068,199.434179 L55.1975831,196.069668 C55.5048741,195.093454 55.8860222,194.294804 56.3406445,193.675247 C56.7964149,193.05569 57.3444109,192.564713 57.9838671,192.201168 C58.6244713,191.838771 59.3687815,191.574723 60.2183283,191.409789 C61.0682578,191.245619 62.0398792,191.129668 63.1347231,191.063082 C64.3979456,190.986163 65.5785096,191.040886 66.6741188,191.227633 C67.7704935,191.414381 68.7225982,191.772185 69.529285,192.300282 C70.3371198,192.829144 70.9941793,193.556999 71.5012286,194.483847 C72.0082779,195.411078 72.3040886,196.562941 72.3878953,197.938288 C72.4514199,198.976878 72.3278147,199.956918 72.0178449,200.877261 C71.7078751,201.798369 71.2566969,202.600463 70.6639275,203.28431 C70.0719235,203.968922 69.3524874,204.526868 68.504854,204.958912 C67.6579859,205.391339 66.7284592,205.638167 65.7181873,205.699778 L64.1178248,205.796979 L63.8556898,201.501793 L65.2034844,201.419517 C65.9895065,201.371682 66.6844512,201.096918 67.2879355,200.594844 C67.8910373,200.093152 68.1592951,199.294884 68.092709,198.199658 C68.0483182,197.470272 67.9082578,196.908117 67.6729104,196.513575 C67.4375629,196.120181 67.1237664,195.82858 66.7319033,195.641067 C66.3400403,195.453938 65.8620745,195.349466 65.296858,195.326888 C64.7320242,195.305076 64.1124673,195.314642 63.4389527,195.355972 C62.6529305,195.404189 62.0088822,195.471541 61.5068077,195.558026 C61.0047331,195.64566 60.6055992,195.789547 60.3074924,195.990453 C60.0097684,196.192125 59.7725076,196.460383 59.5953273,196.794844 C59.4192951,197.129688 59.2348439,197.570916 59.0423565,198.117764 L57.9662638,201.269124 C57.3210675,203.167976 56.3934542,204.47138 55.1822759,205.179335 C53.9722457,205.887291 52.4258409,206.298671 50.5449748,206.413474 C49.4221954,206.481974 48.34572,206.39281 47.3159315,206.145217 C46.2865257,205.898389 45.3887613,205.495428 44.6214904,204.935952 C43.8549849,204.376858 43.2262437,203.647472 42.7341188,202.747412 C42.2423766,201.847351 41.9588117,200.78006 41.883424,199.544773 C41.8183686,198.477865 41.9557503,197.490171 42.2948036,196.581692 C42.6342397,195.673212 43.1072306,194.884129 43.7141591,194.212528 C44.321853,193.541692 45.0148842,193.013212 45.7944008,192.627472 C46.5739174,192.241732 47.3848137,192.023605 48.2270896,191.971944 L50.3325881,191.843746" id="Fill-23"></path>
                    <path d="M46.0492649,182.711118 L45.7526888,187.680967 L41.7093051,187.438731 L42.5603827,173.20423 L46.6033837,173.446083 L46.306425,178.415549 L72.2493656,179.966163 L71.9925881,184.262115 L46.0492649,182.711118" id="Fill-24"></path>
                    <path d="M43.2851762,167.380242 L44.5556697,160.57851 C45.4851964,155.601772 48.8393756,153.653172 54.6178248,154.732326 C56.3326083,155.052628 57.7546425,155.59718 58.8835448,156.365982 C60.0135952,157.135166 60.8248741,158.26713 61.318147,159.760725 L75.6490836,157.716838 L74.8125478,162.196093 L61.4689225,163.780383 L60.9963142,166.310655 L73.6040483,168.66566 L72.8138167,172.895791 L43.2851762,167.380242 L43.2851762,167.380242 Z M57.2636657,165.613031 L57.7129305,163.207895 C57.8526083,162.461289 57.8598792,161.847472 57.7351259,161.366062 C57.6099899,160.885801 57.3765559,160.491259 57.0332931,160.183968 C56.6900302,159.876677 56.2430614,159.628318 55.6916213,159.439275 C55.1405639,159.250614 54.4911581,159.086445 53.7449345,158.94715 C52.9979456,158.807855 52.333998,158.726727 51.7515609,158.703384 C51.1695065,158.680423 50.6532729,158.763464 50.2032427,158.950977 C49.7535952,159.139255 49.3877543,159.449607 49.1061027,159.883565 C48.8252165,160.317905 48.6116818,160.92139 48.4674119,161.695549 L48.0567976,163.893656 L57.2636657,165.613031 L57.2636657,165.613031 Z" id="Fill-25"></path>
                    <path d="M49.4447734,141.167895 L50.5775025,137.765498 L81.1979255,140.887009 L79.8390332,144.970191 L73.3147432,144.13289 L71.462578,149.696657 L77.1874522,152.936415 L75.8285599,157.019597 L49.4447734,141.167895 L49.4447734,141.167895 Z M58.2241893,142.178167 L58.1974018,142.258147 L67.8592749,147.69716 L69.2185498,143.613978 L58.2241893,142.178167 L58.2241893,142.178167 Z" id="Fill-26"></path>
                    <path d="M58.9290836,127.49861 L56.8710373,132.03144 L53.1827795,130.357221 L59.0779456,117.372548 L62.7658207,119.046767 L60.7077744,123.57998 L84.3722457,134.323686 L82.5935549,138.242316 L58.9290836,127.49861" id="Fill-27"></path>
                    <path d="M61.7716213,112.416475 L68.3843102,101.426707 L71.8548238,103.514985 L67.4609063,110.817644 L75.0161329,115.363484 L78.8444512,109.001067 L82.3149648,111.089345 L78.4866465,117.451762 L86.0422558,121.997986 L90.4361732,114.69571 L94.123283,116.914481 L87.5105942,127.90425 L61.7716213,112.416475" id="Fill-28"></path>
                    <path d="M77.6945015,100.395388 C76.7477543,99.6438066 76.041712,98.8133938 75.57714,97.9056798 C75.1129507,96.9979658 74.8580866,96.0868077 74.8133132,95.1706747 C74.7685398,94.2549245 74.8913797,93.3655791 75.1825982,92.5007251 C75.4741994,91.6366365 75.8905539,90.8632427 76.4331923,90.1805438 C76.9750655,89.4978449 77.6344209,88.9169386 78.4101108,88.4370594 C79.1861833,87.9583283 80.0250151,87.6368781 80.9269889,87.472709 C81.8293454,87.3096878 82.7749446,87.3510171 83.7641692,87.5974622 C84.7533938,87.8446727 85.7219537,88.3448338 86.6683182,89.0964149 L87.8580665,90.0412487 L85.1816113,93.4111178 L83.9922457,92.466284 C83.1775227,91.8195569 82.3976234,91.5685196 81.6536959,91.7135549 C80.9097684,91.8593555 80.2925076,92.2405035 79.8026788,92.856999 C79.3128499,93.4734945 79.081712,94.1611682 79.1084995,94.9184894 C79.135287,95.6761934 79.5566163,96.3784089 80.3709567,97.0255186 L92.7934743,106.891742 C93.6081974,107.539235 94.387714,107.790272 95.1320242,107.644471 C95.875569,107.499436 96.4924471,107.118288 96.9826586,106.50141 C97.4721047,105.884914 97.7040081,105.197623 97.6772205,104.439537 C97.6500504,103.682598 97.2294864,102.98 96.4143807,102.332508 L91.9875529,98.8160725 L89.8617724,101.492528 L86.8883585,99.1310171 L91.6902115,93.0846928 L99.0908359,98.9626385 C100.060544,99.7325881 100.771561,100.56721 101.224653,101.46574 C101.678127,102.364653 101.927251,103.271984 101.972407,104.187351 C102.01718,105.103867 101.893958,105.993595 101.602739,106.857301 C101.311138,107.721772 100.894401,108.495549 100.352528,109.177865 C99.8098892,109.860947 99.1505337,110.441853 98.3752266,110.920967 C97.5991541,111.400846 96.7607049,111.722296 95.8583484,111.885317 C94.9563746,112.049486 94.0161329,112.011601 93.038006,111.773575 C92.0598792,111.535549 91.0863444,111.031561 90.1166365,110.261611 L77.6945015,100.395388" id="Fill-29"></path>
                    <path d="M101.417523,88.5687009 L85.1265055,80.1910977 L88.4056798,77.0274924 L99.1857402,83.2173212 L99.2465861,83.1587714 L93.4455589,72.1640282 L96.7247331,69.000423 L104.514159,85.5803625 L113.331843,94.7194965 L110.235206,97.7074522 L101.417523,88.5687009" id="Fill-30"></path>
                </g>
            </g>
        </g>
    </g>
</svg>