<?xml version="1.0" encoding="utf-8"?>
<!-- Generator: Adobe Illustrator 19.1.0, SVG Export Plug-In . SVG Version: 6.00 Build 0)  -->
<svg version="1.1" id="Layer_1" xmlns="http://www.w3.org/2000/svg" xmlns:xlink="http://www.w3.org/1999/xlink" x="0px" y="0px"
	 viewBox="162 80.7 212 171.8" enable-background="new 162 80.7 212 171.8" xml:space="preserve">
<g>
	<path d="M175.7,132.3h15.9v8.4c3.2-2.9,6.4-5.2,9.5-6.8c3.1-1.7,6.9-2.5,11.5-2.5v16.8c-1.6-0.6-3.2-0.9-4.8-0.9
		c-1.7,0-3.4,0.3-5.4,0.9c-1.9,0.6-3.7,1.5-5.3,2.9c-1.6,1.3-2.9,3.1-4,5.3c-1,2.2-1.6,4.9-1.6,8.1v46.8h-15.9v-79H175.7z"/>
	<path d="M233.4,177.7v10.7c0,2.5,0.7,4.4,2.1,5.8c1.4,1.3,3.3,2,5.7,2c3,0,5-0.9,6-2.6c1-1.8,1.6-3.5,1.8-5.3h15.9
		c0,3.3-0.5,6.4-1.6,9.3c-1.1,2.9-2.7,5.4-4.7,7.5c-2.1,2.2-4.6,3.9-7.5,5.1c-2.9,1.2-6.2,1.9-9.8,1.9c-4.9,0-9.1-1-12.6-3.1
		s-6.2-4.8-8.1-8.2c-1.1-2.1-1.9-4.5-2.3-7.2c-0.4-2.7-0.6-5.7-0.6-8.9v-26c0-3.2,0.2-6.2,0.6-8.9c0.4-2.7,1.2-5.1,2.3-7.2
		c1.9-3.4,4.6-6.2,8.1-8.2c3.5-2.1,7.7-3.1,12.6-3.1c3.6,0,6.9,0.6,9.9,1.9c3,1.2,5.4,3,7.5,5.2c2,2.2,3.6,4.8,4.7,7.9
		c1.1,3,1.6,6.2,1.6,9.6v21.8H233.4z M233.4,165.3H249v-9c0-3-0.7-5.3-2.1-6.8c-1.4-1.5-3.3-2.3-5.7-2.3s-4.3,0.8-5.7,2.3
		s-2.1,3.8-2.1,6.8V165.3z"/>
	<path d="M306.5,203.1h-0.3c-2.1,2.9-4.2,5.1-6.3,6.7c-2.1,1.6-5.1,2.3-8.9,2.3c-1.9,0-3.8-0.3-5.8-0.9c-2-0.6-3.8-1.6-5.5-3.1
		s-3.1-3.6-4.2-6.4c-1.1-2.7-1.6-6.3-1.6-10.7c0-4.5,0.4-8.4,1.1-11.7c0.7-3.4,2-6.2,4-8.4c1.9-2.2,4.5-3.9,7.7-5s7.3-1.6,12.3-1.6
		c1.1,0,2.3,0.1,3.4,0.2c1.1,0.1,2.5,0.2,4.2,0.3v-8.2c0-2.7-0.6-4.9-1.7-6.7s-3.2-2.6-6.2-2.6c-2.1,0-4,0.7-5.7,2s-2.8,3.3-3.3,5.9
		h-15.4c0.5-7.2,2.9-12.9,7.2-17.1c2.1-2.1,4.6-3.7,7.5-4.9s6.2-1.8,9.8-1.8c3.3,0,6.4,0.5,9.3,1.6c2.9,1,5.4,2.6,7.5,4.7
		c2.1,2.1,3.8,4.7,5.1,7.8c1.2,3.1,1.9,6.7,1.9,10.9v54.9h-15.9v-8.2H306.5z M306.5,177.3c-1.8-0.3-3.2-0.5-4.4-0.5
		c-3.4,0-6.4,0.8-8.8,2.4c-2.4,1.6-3.7,4.5-3.7,8.8c0,3,0.7,5.4,2.2,7.3c1.5,1.9,3.5,2.8,6.1,2.8c2.7,0,4.8-0.9,6.3-2.6
		c1.5-1.8,2.3-4.3,2.3-7.5V177.3z"/>
	<path d="M333.1,100.4H349v88.5c0,3,0.5,5.1,1.6,6.1c1.1,1.1,3.1,1.8,6.1,2.1V212c-3.6,0-6.9-0.3-9.9-0.9c-3-0.6-5.4-1.7-7.5-3.3
		c-2-1.6-3.6-3.9-4.7-6.8c-1.1-2.9-1.6-6.6-1.6-11.2v-89.4H333.1z"/>
</g>
<g>
	<path fill="#F27490" d="M175.8,219.5h1.7v12h-1.7V219.5z"/>
	<path fill="#F27490" d="M179.1,219.5h1.6l2.6,7.2l0,0v-7.2h1.7v12h-1.6l-2.6-7.2l0,0v7.2h-1.7V219.5z"/>
	<path fill="#F27490" d="M186.6,219.5h1.6l2.6,7.2l0,0v-7.2h1.7v12H191l-2.6-7.2l0,0v7.2h-1.7L186.6,219.5L186.6,219.5z"/>
	<path fill="#F27490" d="M194,222.3c0-0.5,0.1-0.9,0.3-1.3c0.2-0.4,0.4-0.7,0.7-0.9s0.6-0.4,0.9-0.5c0.3-0.1,0.7-0.2,1-0.2
		s0.7,0.1,1,0.2c0.3,0.1,0.6,0.3,0.9,0.5c0.3,0.2,0.5,0.5,0.7,0.9s0.3,0.8,0.3,1.3v6.3c0,0.5-0.1,0.9-0.3,1.3
		c-0.2,0.4-0.4,0.7-0.7,0.9s-0.6,0.4-0.9,0.5c-0.3,0.1-0.7,0.2-1,0.2s-0.7-0.1-1-0.2c-0.3-0.1-0.6-0.3-0.9-0.5
		c-0.3-0.2-0.5-0.5-0.7-0.9s-0.3-0.8-0.3-1.3V222.3z M195.7,228.6c0,0.4,0.1,0.7,0.3,0.9s0.5,0.3,0.8,0.3s0.6-0.1,0.8-0.3
		s0.3-0.5,0.3-0.9v-6.3c0-0.4-0.1-0.7-0.3-0.9s-0.5-0.3-0.8-0.3s-0.6,0.1-0.8,0.3s-0.3,0.5-0.3,0.9V228.6z"/>
	<path fill="#F27490" d="M204.3,231.5h-1.5l-2.4-12h1.8l1.4,8.4l0,0l1.4-8.4h1.8L204.3,231.5z"/>
	<path fill="#F27490" d="M209.1,219.5h1.4l2.7,12h-1.7l-0.5-2.6h-2.3l-0.5,2.6h-1.7L209.1,219.5z M209.8,222.9L209.8,222.9l-0.9,4.3
		h1.7L209.8,222.9z"/>
	<path fill="#F27490" d="M214.2,221.1h-2v-1.6h5.7v1.6h-2v10.4h-1.7V221.1z"/>
	<path fill="#F27490" d="M218.7,219.5h1.7v12h-1.7V219.5z"/>
	<path fill="#F27490" d="M222,222.3c0-0.5,0.1-0.9,0.3-1.3s0.4-0.7,0.7-0.9s0.6-0.4,0.9-0.5c0.3-0.1,0.7-0.2,1-0.2s0.7,0.1,1,0.2
		c0.3,0.1,0.6,0.3,0.9,0.5c0.3,0.2,0.5,0.5,0.7,0.9s0.3,0.8,0.3,1.3v6.3c0,0.5-0.1,0.9-0.3,1.3c-0.2,0.4-0.4,0.7-0.7,0.9
		s-0.6,0.4-0.9,0.5c-0.3,0.1-0.7,0.2-1,0.2s-0.7-0.1-1-0.2c-0.3-0.1-0.6-0.3-0.9-0.5c-0.3-0.2-0.5-0.5-0.7-0.9s-0.3-0.8-0.3-1.3
		V222.3z M223.7,228.6c0,0.4,0.1,0.7,0.3,0.9s0.5,0.3,0.8,0.3s0.6-0.1,0.8-0.3s0.3-0.5,0.3-0.9v-6.3c0-0.4-0.1-0.7-0.3-0.9
		s-0.5-0.3-0.8-0.3s-0.6,0.1-0.8,0.3s-0.3,0.5-0.3,0.9V228.6z"/>
	<path fill="#F27490" d="M229.2,219.5h1.6l2.6,7.2l0,0v-7.2h1.7v12h-1.6l-2.6-7.2l0,0v7.2h-1.7V219.5z"/>
	<path fill="#F27490" d="M236.6,229.7h1.7v1.7h-1.7V229.7z"/>
	<path fill="#F27490" d="M248.5,222.9h-1.7v-0.4c0-0.4-0.1-0.7-0.3-1s-0.5-0.4-0.9-0.4c-0.2,0-0.4,0-0.6,0.1
		c-0.2,0.1-0.3,0.2-0.4,0.3c-0.1,0.1-0.1,0.3-0.2,0.5c0,0.2-0.1,0.4-0.1,0.6c0,0.2,0,0.4,0,0.6c0,0.2,0.1,0.3,0.1,0.4
		c0.1,0.1,0.2,0.2,0.3,0.3s0.3,0.2,0.5,0.3l1.3,0.5c0.4,0.1,0.7,0.3,0.9,0.5s0.4,0.4,0.5,0.7s0.2,0.6,0.3,0.9c0,0.3,0.1,0.7,0.1,1.2
		s-0.1,1-0.2,1.4c-0.1,0.4-0.3,0.8-0.5,1.1s-0.5,0.6-0.9,0.7c-0.4,0.2-0.8,0.3-1.4,0.3c-0.4,0-0.8-0.1-1.2-0.2
		c-0.4-0.1-0.7-0.3-0.9-0.6c-0.3-0.3-0.5-0.6-0.6-0.9c-0.2-0.3-0.2-0.7-0.2-1.1v-0.6h1.7v0.5c0,0.3,0.1,0.6,0.3,0.8
		c0.2,0.3,0.5,0.4,0.9,0.4c0.3,0,0.5,0,0.7-0.1s0.3-0.2,0.4-0.4c0.1-0.2,0.1-0.3,0.2-0.6c0-0.2,0-0.5,0-0.7c0-0.3,0-0.6,0-0.8
		s-0.1-0.4-0.1-0.5c-0.1-0.1-0.2-0.2-0.3-0.3s-0.3-0.2-0.5-0.3l-1.2-0.5c-0.7-0.3-1.2-0.7-1.5-1.2s-0.4-1.1-0.4-1.9
		c0-0.4,0.1-0.9,0.2-1.3c0.1-0.4,0.3-0.8,0.5-1c0.2-0.3,0.5-0.5,0.9-0.7s0.8-0.3,1.3-0.3c0.4,0,0.8,0.1,1.2,0.2
		c0.4,0.2,0.7,0.4,0.9,0.6c0.3,0.3,0.4,0.5,0.6,0.9c0.1,0.3,0.2,0.6,0.2,1L248.5,222.9L248.5,222.9z"/>
	<path fill="#F27490" d="M250.9,221.1h-2v-1.6h5.7v1.6h-2v10.4h-1.7V221.1z"/>
	<path fill="#F27490" d="M255.4,219.5h2.8c2,0,3,1.2,3,3.5c0,0.7-0.1,1.3-0.3,1.8c-0.2,0.5-0.6,0.9-1.2,1.2l1.8,5.5h-1.8l-1.6-5.1
		h-1v5.1h-1.7L255.4,219.5L255.4,219.5z M257.1,224.8h1c0.3,0,0.5,0,0.7-0.1s0.3-0.2,0.4-0.4s0.2-0.4,0.2-0.6c0-0.2,0.1-0.5,0.1-0.8
		s0-0.6-0.1-0.8c0-0.2-0.1-0.4-0.2-0.6c-0.1-0.2-0.3-0.3-0.4-0.4c-0.2-0.1-0.4-0.1-0.8-0.1h-0.9L257.1,224.8L257.1,224.8z"/>
	<path fill="#F27490" d="M264.4,219.5h1.4l2.7,12h-1.7l-0.5-2.6H264l-0.5,2.6h-1.7L264.4,219.5z M265.2,222.9L265.2,222.9l-0.9,4.3
		h1.7L265.2,222.9z"/>
	<path fill="#F27490" d="M269.6,221.1h-2v-1.6h5.7v1.6h-2v10.4h-1.7V221.1z"/>
	<path fill="#F27490" d="M274,219.5h5.1v1.6h-3.4v3.5h3v1.6h-3v3.5h3.4v1.7H274V219.5z"/>
	<path fill="#F27490" d="M280.2,222.3c0-0.5,0.1-0.9,0.3-1.3c0.2-0.4,0.4-0.7,0.7-0.9c0.3-0.2,0.6-0.4,0.9-0.5s0.7-0.2,1-0.2
		s0.7,0.1,1,0.2c0.3,0.1,0.6,0.3,0.9,0.5s0.5,0.5,0.7,0.9s0.3,0.8,0.3,1.3v0.6h-1.7v-0.6c0-0.4-0.1-0.7-0.3-0.9
		c-0.2-0.2-0.5-0.3-0.8-0.3s-0.6,0.1-0.8,0.3c-0.2,0.2-0.3,0.5-0.3,0.9v6.3c0,0.4,0.1,0.7,0.3,0.9c0.2,0.2,0.5,0.3,0.8,0.3
		s0.6-0.1,0.8-0.3c0.2-0.2,0.3-0.5,0.3-0.9v-2.3h-1.4v-1.5h3.1v3.8c0,0.5-0.1,0.9-0.3,1.3c-0.2,0.4-0.4,0.7-0.7,0.9
		c-0.3,0.2-0.6,0.4-0.9,0.5s-0.7,0.2-1,0.2s-0.7-0.1-1-0.2c-0.3-0.1-0.6-0.3-0.9-0.5s-0.5-0.5-0.7-0.9s-0.3-0.8-0.3-1.3V222.3z"/>
	<path fill="#F27490" d="M289,226.4l-2.4-6.9h1.8l1.4,4.8l0,0l1.4-4.8h1.8l-2.4,6.9v5.1H289V226.4z"/>
	<path fill="#F27490" d="M292.3,229.7h1.7v1.7h-1.7V229.7z"/>
	<path fill="#F27490" d="M298.6,219.5h5.1v1.6h-3.4v3.5h3v1.6h-3v3.5h3.4v1.7h-5.1V219.5z"/>
	<path fill="#F27490" d="M306.4,225.2l-2.2-5.7h1.8l1.3,3.5l1.3-3.5h1.8l-2.3,5.7l2.5,6.3h-1.8l-1.5-4l-1.5,4H304L306.4,225.2z"/>
	<path fill="#F27490" d="M311.4,219.5h5.1v1.6h-3.4v3.5h3v1.6h-3v3.5h3.4v1.7h-5.1V219.5z"/>
	<path fill="#F27490" d="M323.1,228.8c0,0.4-0.1,0.7-0.2,1.1c-0.1,0.3-0.3,0.6-0.6,0.9c-0.2,0.3-0.5,0.5-0.9,0.6
		c-0.3,0.2-0.7,0.2-1.1,0.2c-0.3,0-0.7,0-1-0.1s-0.6-0.2-0.9-0.5c-0.3-0.2-0.5-0.5-0.7-0.9s-0.3-0.8-0.3-1.4v-6.6
		c0-0.4,0.1-0.8,0.2-1.1s0.3-0.6,0.6-0.9c0.2-0.2,0.5-0.4,0.9-0.6c0.3-0.1,0.7-0.2,1.1-0.2s0.8,0.1,1.1,0.2c0.3,0.1,0.6,0.3,0.9,0.6
		c0.2,0.3,0.4,0.6,0.6,0.9c0.1,0.4,0.2,0.7,0.2,1.2v0.7h-1.7v-0.6c0-0.3-0.1-0.6-0.3-0.9c-0.2-0.2-0.4-0.4-0.8-0.4s-0.7,0.1-0.8,0.4
		c-0.1,0.3-0.2,0.6-0.2,1v6.1c0,0.3,0.1,0.6,0.2,0.9c0.2,0.2,0.4,0.4,0.8,0.4c0.1,0,0.2,0,0.4-0.1c0.1,0,0.2-0.1,0.4-0.2
		c0.1-0.1,0.2-0.2,0.3-0.4c0.1-0.2,0.1-0.4,0.1-0.6V228h1.7L323.1,228.8L323.1,228.8z"/>
	<path fill="#F27490" d="M330,228.8c0,0.4-0.1,0.8-0.2,1.1s-0.3,0.6-0.6,0.9c-0.3,0.3-0.5,0.5-0.9,0.6c-0.3,0.1-0.7,0.2-1.1,0.2
		s-0.7-0.1-1.1-0.2c-0.3-0.1-0.6-0.3-0.9-0.6s-0.5-0.5-0.6-0.9c-0.1-0.3-0.2-0.7-0.2-1.1v-9.3h1.7v9.1c0,0.4,0.1,0.7,0.3,0.9
		c0.2,0.2,0.5,0.3,0.8,0.3s0.6-0.1,0.8-0.3c0.2-0.2,0.3-0.5,0.3-0.9v-9.1h1.7L330,228.8L330,228.8z"/>
	<path fill="#F27490" d="M332.7,221.1h-2v-1.6h5.7v1.6h-2v10.4h-1.7V221.1z"/>
	<path fill="#F27490" d="M337.2,219.5h1.7v12h-1.7V219.5z"/>
	<path fill="#F27490" d="M340.5,222.3c0-0.5,0.1-0.9,0.3-1.3c0.2-0.4,0.4-0.7,0.7-0.9c0.3-0.2,0.6-0.4,0.9-0.5s0.7-0.2,1-0.2
		s0.7,0.1,1,0.2c0.3,0.1,0.6,0.3,0.9,0.5s0.5,0.5,0.7,0.9s0.3,0.8,0.3,1.3v6.3c0,0.5-0.1,0.9-0.3,1.3c-0.2,0.4-0.4,0.7-0.7,0.9
		c-0.3,0.2-0.6,0.4-0.9,0.5s-0.7,0.2-1,0.2s-0.7-0.1-1-0.2c-0.3-0.1-0.6-0.3-0.9-0.5s-0.5-0.5-0.7-0.9s-0.3-0.8-0.3-1.3V222.3z
		 M342.2,228.6c0,0.4,0.1,0.7,0.3,0.9c0.2,0.2,0.5,0.3,0.8,0.3s0.6-0.1,0.8-0.3c0.2-0.2,0.3-0.5,0.3-0.9v-6.3c0-0.4-0.1-0.7-0.3-0.9
		c-0.2-0.2-0.5-0.3-0.8-0.3s-0.6,0.1-0.8,0.3c-0.2,0.2-0.3,0.5-0.3,0.9V228.6z"/>
	<path fill="#F27490" d="M347.7,219.5h1.6l2.6,7.2l0,0v-7.2h1.7v12H352l-2.6-7.2l0,0v7.2h-1.7V219.5z"/>
	<path fill="#F27490" d="M355.1,229.7h1.7v1.7h-1.7V229.7z"/>
</g>
</svg>
