<?xml version="1.0" encoding="UTF-8" standalone="no"?>
<svg width="41px" height="26px" viewBox="0 0 41 26" version="1.1" xmlns="http://www.w3.org/2000/svg" xmlns:xlink="http://www.w3.org/1999/xlink" xmlns:sketch="http://www.bohemiancoding.com/sketch/ns">
    <!-- Generator: Sketch 3.3.2 (12043) - http://www.bohemiancoding.com/sketch -->
    <title>team icon</title>
    <desc>Created with Sketch.</desc>
    <defs></defs>
    <g id="Account-Management" stroke="none" stroke-width="1" fill="none" fill-rule="evenodd" sketch:type="MSPage">
        <g id="Home" sketch:type="MSArtboardGroup" transform="translate(-743.000000, -254.000000)" fill="#FFFFFF">
            <g id="Expanded-Nav" sketch:type="MSLayerGroup" transform="translate(0.000000, 1.000000)">
                <g id="Nav" transform="translate(408.000000, 80.000000)" sketch:type="MSShapeGroup">
                    <g id="Team" transform="translate(0.000000, 141.000000)">
                        <path d="M371.44,45.642 L370.811,45.642 C371.56,44.642 372.016,43.346 372.016,41.928 C372.016,38.777 369.779,36.214 367.031,36.214 C364.282,36.214 362.046,38.777 362.046,41.928 C362.046,42.587 362.149,43.217 362.328,43.806 C361.804,43.614 361.244,43.5 360.661,43.5 L359.44,43.5 C360.491,42.28 361.142,40.601 361.142,38.75 C361.142,35.028 358.513,32 355.282,32 C352.05,32 349.421,35.028 349.421,38.75 C349.421,40.601 350.072,42.28 351.123,43.5 L349.902,43.5 C349.319,43.5 348.759,43.615 348.233,43.811 C348.414,43.22 348.517,42.588 348.517,41.928 C348.517,38.777 346.281,36.214 343.533,36.214 C340.784,36.214 338.548,38.777 338.548,41.928 C338.548,43.346 339.003,44.642 339.752,45.642 L339.123,45.642 C336.85,45.642 335,47.492 335,49.765 L335,51.166 C335,53.024 336.184,54.434 337.684,56.22 C337.899,56.475 338.122,56.742 338.351,57.02 C338.54,57.25 338.824,57.384 339.123,57.384 L371.44,57.384 C371.739,57.384 372.022,57.25 372.212,57.02 C372.442,56.741 372.665,56.475 372.88,56.219 C374.379,54.433 375.563,53.024 375.563,51.166 L375.563,49.765 C375.563,47.492 373.714,45.642 371.44,45.642 L371.44,45.642 Z M367.031,38.214 C368.677,38.214 370.016,39.88 370.016,41.928 C370.016,43.976 368.677,45.642 367.031,45.642 C365.385,45.642 364.046,43.976 364.046,41.928 C364.046,39.88 365.385,38.214 367.031,38.214 L367.031,38.214 Z M351.421,38.75 C351.421,36.131 353.153,34 355.282,34 C357.41,34 359.142,36.131 359.142,38.75 C359.142,41.369 357.41,43.5 355.282,43.5 C353.153,43.5 351.421,41.369 351.421,38.75 L351.421,38.75 Z M349.902,45.5 L360.661,45.5 C361.045,45.5 361.402,45.6 361.741,45.742 C359.89,46.147 358.499,47.794 358.499,49.765 L358.499,51.166 C358.499,52.724 359.336,53.97 360.489,55.384 L350.373,55.384 C350.322,55.323 350.272,55.263 350.222,55.202 C351.297,53.859 352.065,52.638 352.065,51.166 L352.065,49.765 C352.065,47.783 350.66,46.123 348.793,45.73 C349.137,45.581 349.512,45.5 349.902,45.5 L349.902,45.5 Z M340.548,41.928 C340.548,39.88 341.887,38.214 343.533,38.214 C345.178,38.214 346.517,39.88 346.517,41.928 C346.517,43.976 345.178,45.642 343.533,45.642 C341.887,45.642 340.548,43.976 340.548,41.928 L340.548,41.928 Z M337,51.166 L337,49.765 C337,48.594 337.952,47.642 339.123,47.642 L347.942,47.642 C349.113,47.642 350.065,48.594 350.065,49.765 L350.065,51.166 C350.065,52.201 349.273,53.228 348.155,54.568 L347.898,54.874 C347.759,55.04 347.617,55.209 347.472,55.384 L339.592,55.384 C339.464,55.23 339.338,55.08 339.215,54.934 C337.929,53.402 337,52.296 337,51.166 L337,51.166 Z M373.563,51.166 C373.563,52.295 372.635,53.402 371.349,54.933 C371.225,55.08 371.099,55.23 370.971,55.384 L363.091,55.384 C362.963,55.23 362.837,55.08 362.714,54.934 C361.428,53.402 360.499,52.296 360.499,51.166 L360.499,49.765 C360.499,48.594 361.451,47.642 362.621,47.642 L371.44,47.642 C372.611,47.642 373.563,48.594 373.563,49.765 L373.563,51.166 L373.563,51.166 Z" id="team-icon"></path>
                    </g>
                </g>
            </g>
        </g>
    </g>
</svg>