<?xml version="1.0" encoding="UTF-8" standalone="no"?>
<svg width="31px" height="30px" viewBox="0 0 31 30" version="1.1" xmlns="http://www.w3.org/2000/svg" xmlns:xlink="http://www.w3.org/1999/xlink" xmlns:sketch="http://www.bohemiancoding.com/sketch/ns">
    <g id="Account-Management" stroke="none" stroke-width="1" fill="none" fill-rule="evenodd" sketch:type="MSPage">
        <g id="Home" sketch:type="MSArtboardGroup" transform="translate(-651.000000, -1204.000000)" fill="#000000">
            <g id="Approach" sketch:type="MSLayerGroup" transform="translate(166.000000, 730.000000)">
                <g id="Strategy-+-Execution-+-Validation" transform="translate(485.000000, 185.000000)" sketch:type="MSShapeGroup">
                    <g id="Validation" transform="translate(0.000000, 289.000000)">
                        <g id="Validation-icon">
                            <path d="M22.783,8.742 C22.122,8.247 21.181,8.38 20.683,9.042 L13.193,19.028 L10.544,15.607 C10.038,14.952 9.096,14.833 8.44,15.339 C7.785,15.847 7.665,16.789 8.172,17.443 L13.231,23.977 L23.083,10.843 C23.58,10.18 23.446,9.239 22.783,8.742" id="Fill-1"></path>
                            <path d="M15.541,0.253 C7.409,0.253 0.793,6.868 0.793,15 C0.793,23.132 7.409,29.747 15.541,29.747 C23.672,29.747 30.288,23.132 30.288,15 C30.288,6.868 23.672,0.253 15.541,0.253 L15.541,0.253 Z M15.541,26.747 C9.063,26.747 3.793,21.478 3.793,15 C3.793,8.522 9.063,3.253 15.541,3.253 C22.018,3.253 27.288,8.522 27.288,15 C27.288,21.478 22.018,26.747 15.541,26.747 L15.541,26.747 Z" id="Fill-2"></path>
                        </g>
                    </g>
                </g>
            </g>
        </g>
    </g>
</svg>