<?xml version="1.0" encoding="UTF-8" standalone="no"?>
<svg width="34px" height="23px" viewBox="0 0 34 23" version="1.1" xmlns="http://www.w3.org/2000/svg" xmlns:xlink="http://www.w3.org/1999/xlink" xmlns:sketch="http://www.bohemiancoding.com/sketch/ns">
    <!-- Generator: Sketch 3.3.2 (12043) - http://www.bohemiancoding.com/sketch -->
    <title>contact icon</title>
    <desc>Created with Sketch.</desc>
    <defs></defs>
    <g id="Account-Management" stroke="none" stroke-width="1" fill="none" fill-rule="evenodd" sketch:type="MSPage">
        <g id="Home" sketch:type="MSArtboardGroup" transform="translate(-745.000000, -592.000000)" fill="#FFFFFF">
            <g id="Expanded-Nav" sketch:type="MSLayerGroup" transform="translate(0.000000, 1.000000)">
                <g id="Nav" transform="translate(408.000000, 80.000000)" sketch:type="MSShapeGroup">
                    <g id="contact" transform="translate(0.000000, 483.000000)">
                        <path d="M370.564308,28.8356364 C370.555534,28.7712727 370.54676,28.708 370.524824,28.6458182 C370.502889,28.5803636 370.468889,28.5247273 370.433792,28.4669091 C370.412953,28.4330909 370.405276,28.3949091 370.38005,28.3621818 C370.369082,28.348 370.351534,28.3425455 370.339469,28.3283636 C370.294502,28.2781818 370.242953,28.24 370.188115,28.1996364 C370.139857,28.1647273 370.095986,28.1276364 370.042244,28.1025455 C369.990695,28.0774545 369.93476,28.0665455 369.878824,28.0512727 C369.813018,28.0327273 369.749405,28.0152727 369.681405,28.0109091 C369.66276,28.0098182 369.647405,28 369.627663,28 L338.059211,28 C338.040566,28 338.025211,28.0098182 338.006566,28.0109091 C337.938566,28.0141818 337.874953,28.0327273 337.80805,28.0512727 C337.752115,28.0665455 337.697276,28.0774545 337.645728,28.1025455 C337.591986,28.1276364 337.548115,28.1647273 337.500953,28.1996364 C337.446115,28.24 337.392373,28.2781818 337.347405,28.3283636 C337.336437,28.3425455 337.318889,28.348 337.307921,28.3621818 C337.282695,28.3949091 337.275018,28.4330909 337.254179,28.4669091 C337.219082,28.5247273 337.185082,28.5803636 337.163147,28.6458182 C337.140115,28.708 337.132437,28.7712727 337.123663,28.8356364 C337.119276,28.8770909 337.099534,28.9130909 337.099534,28.9545455 L337.099534,48.808 C336.965728,49.072 336.967921,49.3785455 337.099534,49.6469091 L337.099534,49.6709091 C337.099534,50.1978182 337.529469,50.6254545 338.059211,50.6254545 L369.627663,50.6254545 C370.158502,50.6254545 370.588437,50.1978182 370.588437,49.6709091 L370.588437,28.9545455 C370.588437,28.9130909 370.569792,28.8770909 370.564308,28.8356364 L370.564308,28.8356364 Z M339.018889,30.928 L348.349147,38.2741818 L339.018889,46.936 L339.018889,30.928 L339.018889,30.928 Z M353.843986,40.1669091 L340.817598,29.9090909 L366.870373,29.9090909 L353.843986,40.1669091 L353.843986,40.1669091 Z M349.870373,39.4730909 L353.248437,42.1327273 C353.422824,42.2701818 353.633405,42.3389091 353.843986,42.3389091 C354.054566,42.3389091 354.265147,42.2701818 354.439534,42.1327273 L357.639921,39.6127273 L367.446179,48.7163636 L339.91276,48.7163636 L349.870373,39.4730909 L349.870373,39.4730909 Z M359.161147,38.4149091 L368.669082,30.928 L368.669082,47.2403636 L359.161147,38.4149091 L359.161147,38.4149091 Z" id="contact-icon"></path>
                    </g>
                </g>
            </g>
        </g>
    </g>
</svg>