<?xml version="1.0" encoding="UTF-8" standalone="no"?>
<svg width="241px" height="167px" viewBox="0 0 241 167" version="1.1" xmlns="http://www.w3.org/2000/svg" xmlns:xlink="http://www.w3.org/1999/xlink" xmlns:sketch="http://www.bohemiancoding.com/sketch/ns">
    <!-- Generator: Sketch 3.3.2 (12043) - http://www.bohemiancoding.com/sketch -->
    <title>logo</title>
    <desc>Created with Sketch.</desc>
    <defs></defs>
    <g id="Account-Management" stroke="none" stroke-width="1" fill="none" fill-rule="evenodd" sketch:type="MSPage">
        <g id="Home" sketch:type="MSArtboardGroup" transform="translate(-513.000000, -86.000000)">
            <g sketch:type="MSLayerGroup" transform="translate(166.000000, 32.000000)" id="logo">
                <g transform="translate(347.000000, 54.000000)" sketch:type="MSShapeGroup">
                    <path d="M0.11425,41.5458889 L20.3752396,41.5458889 L20.3752396,52.2499704 C24.4795,48.5524667 28.5230208,45.6441926 32.4934063,43.5276222 C36.4675104,41.414763 41.3651042,40.3558593 47.1948646,40.3558593 L47.1948646,61.7664963 C45.2078125,60.9747926 43.1538229,60.5777037 41.0378542,60.5777037 C38.9169271,60.5777037 36.632375,60.9426296 34.1817188,61.6687704 C31.7298229,62.3949111 29.4799792,63.6195778 27.4284688,65.3353481 C25.3744792,67.0548296 23.6849271,69.3000519 22.3622917,72.075963 C21.0371771,74.8518741 20.3752396,78.2896 20.3752396,82.3854296 L20.3752396,142.058859 L0.11425,142.058859 L0.11425,41.5458889" id="Fill-1" fill="#231F1F"></path>
                    <path d="M78.2352708,99.4355111 L78.2352708,113.115904 C78.2352708,116.287667 79.1290104,118.734526 80.9177292,120.450296 C82.7039688,122.169778 85.1199167,123.028281 88.1680521,123.028281 C92.0070417,123.028281 94.5568646,121.906289 95.8175208,119.657356 C97.0744583,117.410896 97.8355625,115.165674 98.1008333,112.916741 L118.364302,112.916741 C118.364302,117.148644 117.668896,121.114585 116.279323,124.812089 C114.88851,128.513304 112.86799,131.686304 110.22024,134.328615 C107.568771,137.103289 104.390479,139.284185 100.684125,140.870067 C96.9740521,142.457185 92.8028542,143.250126 88.1680521,143.250126 C81.941625,143.250126 76.5779479,141.930207 72.0782604,139.284185 C67.5736146,136.641874 64.1312917,133.138585 61.7463333,128.776793 C60.2873438,126.135719 59.2944375,123.096319 58.766375,119.657356 C58.2358333,116.222104 57.9718021,112.455326 57.9718021,108.357022 L57.9718021,75.2477259 C57.9718021,71.1531333 58.2358333,67.3863556 58.766375,63.9473926 C59.2944375,60.5133778 60.2873438,57.4739778 61.7463333,54.8291926 C64.1312917,50.466163 67.5736146,46.9678222 72.0782604,44.3218 C76.5779479,41.6794889 81.941625,40.3558593 88.1680521,40.3558593 C92.8028542,40.3558593 97.0087604,41.150037 100.784531,42.7346815 C104.557823,44.3218 107.736115,46.5360963 110.318167,49.3763333 C112.902698,52.2202815 114.88851,55.5565704 116.279323,59.3889111 C117.668896,63.2237259 118.364302,67.3195556 118.364302,71.6813481 L118.364302,99.4355111 L78.2352708,99.4355111 L78.2352708,99.4355111 Z M78.2352708,83.5754593 L98.1008333,83.5754593 L98.1008333,72.075963 C98.1008333,68.2448593 97.2083333,65.3699852 95.418375,63.4525778 C93.6321354,61.5388815 91.2137083,60.5777037 88.1680521,60.5777037 C85.1199167,60.5777037 82.7039688,61.5388815 80.9177292,63.4525778 C79.1290104,65.3699852 78.2352708,68.2448593 78.2352708,72.075963 L78.2352708,83.5754593 L78.2352708,83.5754593 Z" id="Fill-2" fill="#231F1F"></path>
                    <path d="M171.604406,131.751867 L171.20774,131.751867 C168.55751,135.453081 165.875052,138.294556 163.162844,140.276289 C160.445677,142.258022 156.638917,143.251363 151.738844,143.251363 C149.355125,143.251363 146.90199,142.883963 144.388115,142.160296 C141.87176,141.434156 139.52151,140.111763 137.336125,138.194356 C135.15074,136.280659 133.36326,133.570311 131.972448,130.067022 C130.581635,126.566207 129.886229,122.036178 129.886229,116.485593 C129.886229,110.805119 130.348594,105.814911 131.277042,101.517444 C132.201771,97.2249259 133.890083,93.6560741 136.343219,90.813363 C138.791396,87.9718889 142.070094,85.8565556 146.176833,84.467363 C150.279854,83.0794074 155.513375,82.3866667 161.871198,82.3866667 C163.326469,82.3866667 164.78174,82.4559407 166.241969,82.5858296 C167.69724,82.7181926 169.485958,82.8505556 171.604406,82.9816815 L171.604406,72.4730519 C171.604406,69.039037 170.875531,66.197563 169.419021,63.9486296 C167.96251,61.7021704 165.313521,60.5789407 161.473292,60.5789407 C158.823062,60.5789407 156.407115,61.4399185 154.221729,63.1569259 C152.036344,64.8751704 150.612063,67.3875926 149.951365,70.6892444 L130.284135,70.6892444 C130.944833,61.5698074 133.99049,54.3034519 139.422344,48.8827556 C142.070094,46.2392074 145.248385,44.1585111 148.957219,42.6357185 C152.663573,41.1191111 156.834771,40.3570963 161.473292,40.3570963 C165.710187,40.3570963 169.684292,41.0189111 173.394365,42.3388296 C177.099479,43.6624593 180.31124,45.6454296 183.029646,48.2865037 C185.740615,50.9325259 187.893771,54.2354148 189.484156,58.2001185 C191.074542,62.1648222 191.869115,66.7925778 191.869115,72.0772 L191.869115,142.061333 L171.604406,142.061333 L171.604406,131.751867 L171.604406,131.751867 Z M171.604406,98.8417333 C169.352083,98.4446444 167.498906,98.2479556 166.042396,98.2479556 C161.671625,98.2479556 157.928083,99.2722222 154.819208,101.319519 C151.705375,103.370526 150.149698,107.102667 150.149698,112.520889 C150.149698,116.355704 151.074427,119.460667 152.931323,121.839489 C154.7845,124.217074 157.366552,125.407104 160.679958,125.407104 C164.121042,125.407104 166.80226,124.286348 168.724854,122.036178 C170.643729,119.792193 171.604406,116.619193 171.604406,112.520889 L171.604406,98.8417333 L171.604406,98.8417333 Z" id="Fill-3" fill="#231F1F"></path>
                    <path d="M205.573948,0.904274074 L225.838656,0.904274074 L225.838656,113.710919 C225.838656,117.545733 226.532823,120.153407 227.923635,121.541363 C229.313208,122.929319 231.928729,123.821222 235.771438,124.217074 L235.771438,143.250126 C231.132917,143.250126 226.931969,142.883963 223.156198,142.160296 C219.380427,141.434156 216.203375,140.047437 213.618844,137.995193 C211.038031,135.949133 209.052219,133.074259 207.661406,129.373044 C206.270594,125.674304 205.573948,120.915422 205.573948,115.097637 L205.573948,0.904274074" id="Fill-4" fill="#231F1F"></path>
                    <path d="M10.5738542,157.242252 L8.64382292,157.242252 L8.64382292,156.808052 C8.64382292,156.36643 8.53969792,155.985422 8.33144792,155.663793 C8.12319792,155.3434 7.77363542,155.182585 7.28028125,155.182585 C7.01501042,155.182585 6.79808333,155.233304 6.62702083,155.333504 C6.45719792,155.434941 6.3245625,155.563593 6.23035417,155.720696 C6.13490625,155.879037 6.06920833,156.060881 6.03078125,156.268704 C5.99359375,156.476526 5.97376042,156.694244 5.97376042,156.920622 C5.97376042,157.185348 5.98367708,157.409252 6.00227083,157.591096 C6.02210417,157.774178 6.06920833,157.931281 6.14482292,158.063644 C6.2204375,158.196007 6.33076042,158.312289 6.47579167,158.413726 C6.62082292,158.513926 6.81915625,158.615363 7.07203125,158.715563 L8.54961458,159.300681 C8.97727083,159.465207 9.32435417,159.656948 9.589625,159.877141 C9.85489583,160.097333 10.0606667,160.355874 10.2056979,160.651526 C10.3507292,160.947178 10.4486562,161.287363 10.4982396,161.672081 C10.5490625,162.0568 10.5738542,162.493474 10.5738542,162.984578 C10.5738542,163.551141 10.5180729,164.078119 10.4040312,164.5618 C10.2899896,165.046719 10.1040521,165.462363 9.84497917,165.80997 C9.58714583,166.155104 9.24254167,166.429726 8.81364583,166.631363 C8.38475,166.833 7.86040625,166.9332 7.24309375,166.9332 C6.77577083,166.9332 6.34067708,166.851556 5.93657292,166.688267 C5.53246875,166.523741 5.18538542,166.301074 4.89532292,166.017793 C4.60526042,165.734511 4.37469792,165.3968 4.204875,165.005896 C4.0338125,164.61623 3.94952083,164.1944 3.94952083,163.740407 L3.94952083,163.022926 L5.87955208,163.022926 L5.87955208,163.6266 C5.87955208,163.980393 5.98367708,164.298311 6.19192708,164.581593 C6.40017708,164.864874 6.75097917,165.005896 7.24309375,165.005896 C7.57034375,165.005896 7.8269375,164.958889 8.00915625,164.864874 C8.191375,164.770859 8.33144792,164.638496 8.42565625,164.467785 C8.52110417,164.298311 8.58060417,164.086778 8.60539583,163.834422 C8.63142708,163.583304 8.64382292,163.306207 8.64382292,163.003133 C8.64382292,162.651815 8.63142708,162.361111 8.60539583,162.134733 C8.58060417,161.908356 8.5260625,161.725274 8.44548958,161.586726 C8.3624375,161.448178 8.24839583,161.335607 8.10460417,161.247778 C7.95833333,161.158711 7.76619792,161.064696 7.52695833,160.963259 L6.14482292,160.396696 C5.31182292,160.056511 4.75401042,159.60623 4.46890625,159.045852 C4.18628125,158.485474 4.04372917,157.784074 4.04372917,156.940415 C4.04372917,156.435704 4.11190625,155.95697 4.25197917,155.504215 C4.3908125,155.050222 4.59534375,154.660556 4.8668125,154.332741 C5.13828125,154.004926 5.48164583,153.743911 5.89814583,153.548459 C6.31464583,153.353007 6.8005625,153.256519 7.35589583,153.256519 C7.83561458,153.256519 8.27442708,153.344348 8.67233333,153.520007 C9.069,153.696904 9.40988542,153.929467 9.69375,154.218933 C9.97761458,154.509637 10.1957812,154.833741 10.3470104,155.192481 C10.4982396,155.551222 10.5738542,155.919859 10.5738542,156.297156 L10.5738542,157.242252" id="Fill-5" fill="#FF2FA4"></path>
                    <path d="M14.2281458,155.182585 L11.9944167,155.182585 L11.9944167,153.369089 L18.3931458,153.369089 L18.3931458,155.182585 L16.1594167,155.182585 L16.1594167,166.819393 L14.2281458,166.819393 L14.2281458,155.182585" id="Fill-6" fill="#FF2FA4"></path>
                    <path d="M20.1905417,153.369089 L23.2956979,153.369089 C25.5678542,153.369089 26.7033125,154.685296 26.7033125,157.317711 C26.7033125,158.098281 26.5793542,158.768756 26.3339167,159.329133 C26.0872396,159.889511 25.654625,160.339793 25.0373125,160.679978 L27.1185729,166.819393 L25.0757396,166.819393 L23.2758646,161.077067 L22.1218125,161.077067 L22.1218125,166.819393 L20.1905417,166.819393 L20.1905417,153.369089 L20.1905417,153.369089 Z M22.1218125,159.376141 L23.2188438,159.376141 C23.5597292,159.376141 23.8324375,159.329133 24.03325,159.235119 C24.2353021,159.139867 24.39025,159.00503 24.4980938,158.828133 C24.6046979,158.652474 24.6778333,158.435993 24.7150208,158.177452 C24.7534479,157.918911 24.7720417,157.619548 24.7720417,157.2806 C24.7720417,156.940415 24.7534479,156.641052 24.7150208,156.382511 C24.6778333,156.12397 24.5985,155.903778 24.4782604,155.720696 C24.3580208,155.538852 24.1919167,155.402778 23.9762292,155.314948 C23.7617813,155.227119 23.4791563,155.182585 23.1246354,155.182585 L22.1218125,155.182585 L22.1218125,159.376141 L22.1218125,159.376141 Z" id="Fill-7" fill="#FF2FA4"></path>
                    <path d="M31.3405937,153.369089 L32.9495729,153.369089 L35.9592812,166.819393 L34.02925,166.819393 L33.4602812,163.929674 L30.8298854,163.929674 L30.2621562,166.819393 L28.3308854,166.819393 L31.3405937,153.369089 L31.3405937,153.369089 Z M32.155,157.242252 L32.1165729,157.242252 L31.1707708,162.116178 L33.1008021,162.116178 L32.155,157.242252 L32.155,157.242252 Z" id="Fill-8" fill="#FF2FA4"></path>
                    <path d="M39.1214583,155.182585 L36.8864896,155.182585 L36.8864896,153.369089 L43.2852187,153.369089 L43.2852187,155.182585 L41.0514896,155.182585 L41.0514896,166.819393 L39.1214583,166.819393 L39.1214583,155.182585" id="Fill-9" fill="#FF2FA4"></path>
                    <path d="M45.0838542,153.369089 L50.838,153.369089 L50.838,155.182585 L47.0138854,155.182585 L47.0138854,159.131207 L50.3458854,159.131207 L50.3458854,160.944704 L47.0138854,160.944704 L47.0138854,164.893326 L50.838,164.893326 L50.838,166.819393 L45.0838542,166.819393 L45.0838542,153.369089" id="Fill-10" fill="#FF2FA4"></path>
                    <path d="M52.9205,156.543326 C52.9205,156.001504 53.0159479,155.52277 53.2043646,155.107126 C53.3940208,154.691481 53.6431771,154.348822 53.9518333,154.077911 C54.2617292,153.807 54.6088125,153.601652 54.9930833,153.464341 C55.3785938,153.325793 55.7665833,153.256519 56.1582917,153.256519 C56.5487604,153.256519 56.93675,153.325793 57.3222604,153.464341 C57.7065313,153.601652 58.0536146,153.807 58.3635104,154.077911 C58.6721667,154.348822 58.9213229,154.691481 59.1109792,155.107126 C59.3006354,155.52277 59.3948438,156.001504 59.3948438,156.543326 L59.3948438,157.223696 L57.4635729,157.223696 L57.4635729,156.543326 C57.4635729,156.076963 57.3346563,155.734304 57.0755833,155.512874 C56.8165104,155.293919 56.5103333,155.182585 56.1582917,155.182585 C55.8050104,155.182585 55.4988333,155.293919 55.2397604,155.512874 C54.9806875,155.734304 54.8517708,156.076963 54.8517708,156.543326 L54.8517708,163.646393 C54.8517708,164.111519 54.9806875,164.455415 55.2397604,164.675607 C55.4988333,164.8958 55.8050104,165.005896 56.1582917,165.005896 C56.5103333,165.005896 56.8165104,164.8958 57.0755833,164.675607 C57.3346563,164.455415 57.4635729,164.111519 57.4635729,163.646393 L57.4635729,161.115415 L55.9314479,161.115415 L55.9314479,159.414489 L59.3948438,159.414489 L59.3948438,163.646393 C59.3948438,164.200585 59.3006354,164.681793 59.1109792,165.091252 C58.9213229,165.500711 58.6721667,165.840896 58.3635104,166.111807 C58.0536146,166.382719 57.7065313,166.58683 57.3222604,166.725378 C56.93675,166.863926 56.5487604,166.9332 56.1582917,166.9332 C55.7665833,166.9332 55.3785938,166.863926 54.9930833,166.725378 C54.6088125,166.58683 54.2617292,166.382719 53.9518333,166.111807 C53.6431771,165.840896 53.3940208,165.500711 53.2043646,165.091252 C53.0159479,164.681793 52.9205,164.200585 52.9205,163.646393 L52.9205,156.543326" id="Fill-11" fill="#FF2FA4"></path>
                    <path d="M63.8424688,161.13397 L61.1934792,153.369089 L63.2375521,153.369089 L64.7895104,158.715563 L64.8279375,158.715563 L66.3798958,153.369089 L68.4239688,153.369089 L65.7749792,161.13397 L65.7749792,166.819393 L63.8424688,166.819393 L63.8424688,161.13397" id="Fill-12" fill="#FF2FA4"></path>
                    <path d="M70.2226042,164.893326 L72.153875,164.893326 L72.153875,166.82063 L70.2226042,166.82063 L70.2226042,164.893326 Z" id="Fill-13" fill="#FF2FA4"></path>
                    <path d="M79.2703229,153.369089 L85.0257083,153.369089 L85.0257083,155.182585 L81.2015937,155.182585 L81.2015937,159.131207 L84.5335937,159.131207 L84.5335937,160.944704 L81.2015937,160.944704 L81.2015937,164.893326 L85.0257083,164.893326 L85.0257083,166.819393 L79.2703229,166.819393 L79.2703229,153.369089" id="Fill-14" fill="#FF2FA4"></path>
                    <path d="M89.0010521,159.77323 L86.4834583,153.369089 L88.5275313,153.369089 L89.9852813,157.356059 L91.461625,153.369089 L93.5069375,153.369089 L90.9310833,159.77323 L93.7151875,166.819393 L91.669875,166.819393 L89.9852813,162.285652 L88.3192813,166.819393 L86.2752083,166.819393 L89.0010521,159.77323" id="Fill-15" fill="#FF2FA4"></path>
                    <path d="M95.5311771,153.369089 L101.286563,153.369089 L101.286563,155.182585 L97.4624479,155.182585 L97.4624479,159.131207 L100.794448,159.131207 L100.794448,160.944704 L97.4624479,160.944704 L97.4624479,164.893326 L101.286563,164.893326 L101.286563,166.819393 L95.5311771,166.819393 L95.5311771,153.369089" id="Fill-16" fill="#FF2FA4"></path>
                    <path d="M109.616563,163.815867 C109.616563,164.231511 109.537229,164.6286 109.379802,165.005896 C109.221135,165.38443 109.004208,165.714719 108.726542,165.998 C108.448875,166.281281 108.124104,166.508896 107.75099,166.67837 C107.379115,166.847844 106.978729,166.9332 106.549833,166.9332 C106.182917,166.9332 105.811042,166.882481 105.432969,166.782281 C105.053656,166.682081 104.712771,166.508896 104.410313,166.262726 C104.106615,166.017793 103.857458,165.692452 103.661604,165.290415 C103.46699,164.887141 103.369063,164.376244 103.369063,163.758963 L103.369063,156.354059 C103.369063,155.913674 103.444677,155.504215 103.595906,155.125681 C103.747135,154.748385 103.961583,154.42057 104.23925,154.143474 C104.516917,153.866378 104.849125,153.649896 105.233396,153.492793 C105.618906,153.334452 106.044083,153.256519 106.511406,153.256519 C106.952698,153.256519 107.363,153.334452 107.742313,153.492793 C108.120385,153.649896 108.448875,153.870089 108.726542,154.15337 C109.004208,154.436652 109.221135,154.776837 109.379802,155.172689 C109.537229,155.569778 109.616563,156.001504 109.616563,156.467867 L109.616563,157.223696 L107.685292,157.223696 L107.685292,156.580437 C107.685292,156.203141 107.577448,155.875326 107.363,155.59823 C107.148552,155.32237 106.85849,155.182585 106.492813,155.182585 C106.013094,155.182585 105.694521,155.33103 105.537094,155.626681 C105.378427,155.922333 105.300333,156.297156 105.300333,156.751148 L105.300333,163.6266 C105.300333,164.017504 105.385865,164.345319 105.555688,164.610044 C105.72551,164.87477 106.031688,165.005896 106.474219,165.005896 C106.599417,165.005896 106.734531,164.984867 106.880802,164.940333 C107.025833,164.8958 107.158469,164.824052 107.277469,164.722615 C107.397708,164.622415 107.495635,164.483867 107.57125,164.30697 C107.646865,164.131311 107.685292,163.909881 107.685292,163.646393 L107.685292,162.984578 L109.616563,162.984578 L109.616563,163.815867" id="Fill-17" fill="#FF2FA4"></path>
                    <path d="M118.380417,163.797311 C118.380417,164.238933 118.298604,164.647156 118.134979,165.025689 C117.970115,165.402985 117.74699,165.734511 117.463125,166.017793 C117.178021,166.301074 116.847052,166.523741 116.468979,166.688267 C116.089667,166.851556 115.685563,166.9332 115.256667,166.9332 C114.827771,166.9332 114.424906,166.851556 114.045594,166.688267 C113.667521,166.523741 113.335313,166.301074 113.051448,166.017793 C112.767583,165.734511 112.544458,165.402985 112.379594,165.025689 C112.215969,164.647156 112.132917,164.238933 112.132917,163.797311 L112.132917,153.369089 L114.064188,153.369089 L114.064188,163.608044 C114.064188,164.086778 114.178229,164.439333 114.405073,164.666948 C114.633156,164.893326 114.917021,165.005896 115.256667,165.005896 C115.597552,165.005896 115.881417,164.893326 116.1095,164.666948 C116.336344,164.439333 116.449146,164.086778 116.449146,163.608044 L116.449146,153.369089 L118.380417,153.369089 L118.380417,163.797311" id="Fill-18" fill="#FF2FA4"></path>
                    <path d="M122.412781,155.182585 L120.179052,155.182585 L120.179052,153.369089 L126.577781,153.369089 L126.577781,155.182585 L124.344052,155.182585 L124.344052,166.819393 L122.412781,166.819393 L122.412781,155.182585" id="Fill-19" fill="#FF2FA4"></path>
                    <path d="M128.432198,153.369089 L130.363469,153.369089 L130.363469,166.82063 L128.432198,166.82063 L128.432198,153.369089 Z" id="Fill-20" fill="#FF2FA4"></path>
                    <path d="M133.070719,156.543326 C133.070719,156.001504 133.164927,155.52277 133.354583,155.107126 C133.543,154.691481 133.792156,154.348822 134.102052,154.077911 C134.410708,153.807 134.757792,153.601652 135.142063,153.464341 C135.527573,153.325793 135.915563,153.256519 136.307271,153.256519 C136.69774,153.256519 137.085729,153.325793 137.47124,153.464341 C137.85551,153.601652 138.202594,153.807 138.51249,154.077911 C138.822385,154.348822 139.071542,154.691481 139.259958,155.107126 C139.449615,155.52277 139.543823,156.001504 139.543823,156.543326 L139.543823,163.646393 C139.543823,164.200585 139.449615,164.681793 139.259958,165.091252 C139.071542,165.500711 138.822385,165.840896 138.51249,166.111807 C138.202594,166.382719 137.85551,166.58683 137.47124,166.725378 C137.085729,166.863926 136.69774,166.9332 136.307271,166.9332 C135.915563,166.9332 135.527573,166.863926 135.142063,166.725378 C134.757792,166.58683 134.410708,166.382719 134.102052,166.111807 C133.792156,165.840896 133.543,165.500711 133.354583,165.091252 C133.164927,164.681793 133.070719,164.200585 133.070719,163.646393 L133.070719,156.543326 L133.070719,156.543326 Z M135.00075,163.646393 C135.00075,164.111519 135.129667,164.455415 135.38874,164.675607 C135.647813,164.8958 135.95399,165.005896 136.307271,165.005896 C136.660552,165.005896 136.966729,164.8958 137.225802,164.675607 C137.483635,164.455415 137.613792,164.111519 137.613792,163.646393 L137.613792,156.543326 C137.613792,156.076963 137.483635,155.734304 137.225802,155.512874 C136.966729,155.293919 136.660552,155.182585 136.307271,155.182585 C135.95399,155.182585 135.647813,155.293919 135.38874,155.512874 C135.129667,155.734304 135.00075,156.076963 135.00075,156.543326 L135.00075,163.646393 L135.00075,163.646393 Z" id="Fill-21" fill="#FF2FA4"></path>
                    <path d="M142.118438,153.369089 L143.974094,153.369089 L146.889594,161.474156 L146.926781,161.474156 L146.926781,153.369089 L148.856813,153.369089 L148.856813,166.819393 L147.040823,166.819393 L144.086896,158.734119 L144.049708,158.734119 L144.049708,166.819393 L142.118438,166.819393 L142.118438,153.369089" id="Fill-22" fill="#FF2FA4"></path>
                    <path d="M151.432667,164.893326 L153.363938,164.893326 L153.363938,166.82063 L151.432667,166.82063 L151.432667,164.893326 Z" id="Fill-23" fill="#FF2FA4"></path>
                    <path d="M164.266073,166.819393 L162.562885,166.819393 L159.817208,153.369089 L161.862521,153.369089 L163.395885,162.7582 L163.433073,162.7582 L164.985031,153.369089 L167.030344,153.369089 L164.266073,166.819393" id="Fill-24" fill="#FF2FA4"></path>
                    <path d="M171.270958,153.369089 L172.879937,153.369089 L175.889646,166.819393 L173.958375,166.819393 L173.390646,163.929674 L170.76025,163.929674 L170.191281,166.819393 L168.26125,166.819393 L171.270958,153.369089 L171.270958,153.369089 Z M172.085365,157.242252 L172.046937,157.242252 L171.101135,162.116178 L173.032406,162.116178 L172.085365,157.242252 L172.085365,157.242252 Z" id="Fill-25" fill="#FF2FA4"></path>
                    <path d="M177.78249,153.369089 L179.71376,153.369089 L179.71376,164.893326 L183.537875,164.893326 L183.537875,166.819393 L177.78249,166.819393 L177.78249,153.369089" id="Fill-26" fill="#FF2FA4"></path>
                    <path d="M185.790198,153.369089 L187.721469,153.369089 L187.721469,166.82063 L185.790198,166.82063 L185.790198,153.369089 Z" id="Fill-27" fill="#FF2FA4"></path>
                    <path d="M190.541521,153.369089 L193.4,153.369089 C194.498271,153.369089 195.337469,153.674637 195.917594,154.285733 C196.497719,154.89683 196.787781,155.749148 196.787781,156.845163 L196.787781,163.135496 C196.787781,164.3948 196.481604,165.323815 195.87049,165.922541 C195.258135,166.521267 194.378031,166.819393 193.228938,166.819393 L190.541521,166.819393 L190.541521,153.369089 L190.541521,153.369089 Z M192.472792,165.005896 L193.362813,165.005896 C193.90451,165.005896 194.290021,164.871059 194.516865,164.600148 C194.743708,164.329237 194.85775,163.904933 194.85775,163.324763 L194.85775,156.845163 C194.85775,156.315711 194.749906,155.907489 194.535458,155.616785 C194.32101,155.327319 193.930542,155.182585 193.362813,155.182585 L192.472792,155.182585 L192.472792,165.005896 L192.472792,165.005896 Z" id="Fill-28" fill="#FF2FA4"></path>
                    <path d="M201.692813,153.369089 L203.300552,153.369089 L206.31026,166.819393 L204.37899,166.819393 L203.81126,163.929674 L201.180865,163.929674 L200.611896,166.819393 L198.681865,166.819393 L201.692813,153.369089 L201.692813,153.369089 Z M202.505979,157.242252 L202.467552,157.242252 L201.52175,162.116178 L203.451781,162.116178 L202.505979,157.242252 L202.505979,157.242252 Z" id="Fill-29" fill="#FF2FA4"></path>
                    <path d="M209.471198,155.182585 L207.237469,155.182585 L207.237469,153.369089 L213.636198,153.369089 L213.636198,155.182585 L211.402469,155.182585 L211.402469,166.819393 L209.471198,166.819393 L209.471198,155.182585" id="Fill-30" fill="#FF2FA4"></path>
                    <path d="M215.491854,153.369089 L217.423125,153.369089 L217.423125,166.82063 L215.491854,166.82063 L215.491854,153.369089 Z" id="Fill-31" fill="#FF2FA4"></path>
                    <path d="M220.130375,156.543326 C220.130375,156.001504 220.224583,155.52277 220.413,155.107126 C220.602656,154.691481 220.851812,154.348822 221.161708,154.077911 C221.470365,153.807 221.817448,153.601652 222.201719,153.464341 C222.587229,153.325793 222.975219,153.256519 223.366927,153.256519 C223.757396,153.256519 224.146625,153.325793 224.530896,153.464341 C224.916406,153.601652 225.26225,153.807 225.572146,154.077911 C225.880802,154.348822 226.129958,154.691481 226.319615,155.107126 C226.509271,155.52277 226.603479,156.001504 226.603479,156.543326 L226.603479,163.646393 C226.603479,164.200585 226.509271,164.681793 226.319615,165.091252 C226.129958,165.500711 225.880802,165.840896 225.572146,166.111807 C225.26225,166.382719 224.916406,166.58683 224.530896,166.725378 C224.146625,166.863926 223.757396,166.9332 223.366927,166.9332 C222.975219,166.9332 222.587229,166.863926 222.201719,166.725378 C221.817448,166.58683 221.470365,166.382719 221.161708,166.111807 C220.851812,165.840896 220.602656,165.500711 220.413,165.091252 C220.224583,164.681793 220.130375,164.200585 220.130375,163.646393 L220.130375,156.543326 L220.130375,156.543326 Z M222.060406,163.646393 C222.060406,164.111519 222.190562,164.455415 222.448396,164.675607 C222.707469,164.8958 223.013646,165.005896 223.366927,165.005896 C223.720208,165.005896 224.026385,164.8958 224.284219,164.675607 C224.543292,164.455415 224.673448,164.111519 224.673448,163.646393 L224.673448,156.543326 C224.673448,156.076963 224.543292,155.734304 224.284219,155.512874 C224.026385,155.293919 223.720208,155.182585 223.366927,155.182585 C223.013646,155.182585 222.707469,155.293919 222.448396,155.512874 C222.190562,155.734304 222.060406,156.076963 222.060406,156.543326 L222.060406,163.646393 L222.060406,163.646393 Z" id="Fill-32" fill="#FF2FA4"></path>
                    <path d="M229.178094,153.369089 L231.03375,153.369089 L233.94925,161.474156 L233.986438,161.474156 L233.986438,153.369089 L235.917708,153.369089 L235.917708,166.819393 L234.100479,166.819393 L231.146552,158.734119 L231.109365,158.734119 L231.109365,166.819393 L229.178094,166.819393 L229.178094,153.369089" id="Fill-33" fill="#FF2FA4"></path>
                    <path d="M238.492323,164.893326 L240.423594,164.893326 L240.423594,166.82063 L238.492323,166.82063 L238.492323,164.893326 Z" id="Fill-34" fill="#00AAAD"></path>
                </g>
            </g>
        </g>
    </g>
</svg>