<?xml version="1.0" encoding="UTF-8" standalone="no"?>
<svg width="239px" height="167px" viewBox="0 0 239 167" version="1.1" xmlns="http://www.w3.org/2000/svg" xmlns:xlink="http://www.w3.org/1999/xlink" xmlns:sketch="http://www.bohemiancoding.com/sketch/ns">
    <!-- Generator: Sketch 3.3.2 (12043) - http://www.bohemiancoding.com/sketch -->
    <title>logo</title>
    <desc>Created with Sketch.</desc>
    <defs></defs>
    <g id="Account-Management" stroke="none" stroke-width="1" fill="none" fill-rule="evenodd" sketch:type="MSPage">
        <g id="Home" sketch:type="MSArtboardGroup" transform="translate(-511.000000, -86.000000)">
            <g sketch:type="MSLayerGroup" transform="translate(166.000000, 32.000000)" id="logo">
                <g transform="translate(345.000000, 54.000000)" sketch:type="MSShapeGroup">
                    <path d="M2.11425,41.5458889 L22.3752396,41.5458889 L22.3752396,52.2499704 C26.4795,48.5524667 30.5230208,45.6441926 34.4934063,43.5276222 C38.4675104,41.414763 43.3651042,40.3558593 49.1948646,40.3558593 L49.1948646,61.7664963 C47.2078125,60.9747926 45.1538229,60.5777037 43.0378542,60.5777037 C40.9169271,60.5777037 38.632375,60.9426296 36.1817188,61.6687704 C33.7298229,62.3949111 31.4799792,63.6195778 29.4284688,65.3353481 C27.3744792,67.0548296 25.6849271,69.3000519 24.3622917,72.075963 C23.0371771,74.8518741 22.3752396,78.2896 22.3752396,82.3854296 L22.3752396,142.058859 L2.11425,142.058859 L2.11425,41.5458889" id="Fill-1" fill="#231F1F"></path>
                    <path d="M80.2352708,99.4355111 L80.2352708,113.115904 C80.2352708,116.287667 81.1290104,118.734526 82.9177292,120.450296 C84.7039688,122.169778 87.1199167,123.028281 90.1680521,123.028281 C94.0070417,123.028281 96.5568646,121.906289 97.8175208,119.657356 C99.0744583,117.410896 99.8355625,115.165674 100.100833,112.916741 L120.364302,112.916741 C120.364302,117.148644 119.668896,121.114585 118.279323,124.812089 C116.88851,128.513304 114.86799,131.686304 112.22024,134.328615 C109.568771,137.103289 106.390479,139.284185 102.684125,140.870067 C98.9740521,142.457185 94.8028542,143.250126 90.1680521,143.250126 C83.941625,143.250126 78.5779479,141.930207 74.0782604,139.284185 C69.5736146,136.641874 66.1312917,133.138585 63.7463333,128.776793 C62.2873438,126.135719 61.2944375,123.096319 60.766375,119.657356 C60.2358333,116.222104 59.9718021,112.455326 59.9718021,108.357022 L59.9718021,75.2477259 C59.9718021,71.1531333 60.2358333,67.3863556 60.766375,63.9473926 C61.2944375,60.5133778 62.2873438,57.4739778 63.7463333,54.8291926 C66.1312917,50.466163 69.5736146,46.9678222 74.0782604,44.3218 C78.5779479,41.6794889 83.941625,40.3558593 90.1680521,40.3558593 C94.8028542,40.3558593 99.0087604,41.150037 102.784531,42.7346815 C106.557823,44.3218 109.736115,46.5360963 112.318167,49.3763333 C114.902698,52.2202815 116.88851,55.5565704 118.279323,59.3889111 C119.668896,63.2237259 120.364302,67.3195556 120.364302,71.6813481 L120.364302,99.4355111 L80.2352708,99.4355111 L80.2352708,99.4355111 Z M80.2352708,83.5754593 L100.100833,83.5754593 L100.100833,72.075963 C100.100833,68.2448593 99.2083333,65.3699852 97.418375,63.4525778 C95.6321354,61.5388815 93.2137083,60.5777037 90.1680521,60.5777037 C87.1199167,60.5777037 84.7039688,61.5388815 82.9177292,63.4525778 C81.1290104,65.3699852 80.2352708,68.2448593 80.2352708,72.075963 L80.2352708,83.5754593 L80.2352708,83.5754593 Z" id="Fill-2" fill="#231F1F"></path>
                    <path d="M173.604406,131.751867 L173.20774,131.751867 C170.55751,135.453081 167.875052,138.294556 165.162844,140.276289 C162.445677,142.258022 158.638917,143.251363 153.738844,143.251363 C151.355125,143.251363 148.90199,142.883963 146.388115,142.160296 C143.87176,141.434156 141.52151,140.111763 139.336125,138.194356 C137.15074,136.280659 135.36326,133.570311 133.972448,130.067022 C132.581635,126.566207 131.886229,122.036178 131.886229,116.485593 C131.886229,110.805119 132.348594,105.814911 133.277042,101.517444 C134.201771,97.2249259 135.890083,93.6560741 138.343219,90.813363 C140.791396,87.9718889 144.070094,85.8565556 148.176833,84.467363 C152.279854,83.0794074 157.513375,82.3866667 163.871198,82.3866667 C165.326469,82.3866667 166.78174,82.4559407 168.241969,82.5858296 C169.69724,82.7181926 171.485958,82.8505556 173.604406,82.9816815 L173.604406,72.4730519 C173.604406,69.039037 172.875531,66.197563 171.419021,63.9486296 C169.96251,61.7021704 167.313521,60.5789407 163.473292,60.5789407 C160.823062,60.5789407 158.407115,61.4399185 156.221729,63.1569259 C154.036344,64.8751704 152.612063,67.3875926 151.951365,70.6892444 L132.284135,70.6892444 C132.944833,61.5698074 135.99049,54.3034519 141.422344,48.8827556 C144.070094,46.2392074 147.248385,44.1585111 150.957219,42.6357185 C154.663573,41.1191111 158.834771,40.3570963 163.473292,40.3570963 C167.710187,40.3570963 171.684292,41.0189111 175.394365,42.3388296 C179.099479,43.6624593 182.31124,45.6454296 185.029646,48.2865037 C187.740615,50.9325259 189.893771,54.2354148 191.484156,58.2001185 C193.074542,62.1648222 193.869115,66.7925778 193.869115,72.0772 L193.869115,142.061333 L173.604406,142.061333 L173.604406,131.751867 L173.604406,131.751867 Z M173.604406,98.8417333 C171.352083,98.4446444 169.498906,98.2479556 168.042396,98.2479556 C163.671625,98.2479556 159.928083,99.2722222 156.819208,101.319519 C153.705375,103.370526 152.149698,107.102667 152.149698,112.520889 C152.149698,116.355704 153.074427,119.460667 154.931323,121.839489 C156.7845,124.217074 159.366552,125.407104 162.679958,125.407104 C166.121042,125.407104 168.80226,124.286348 170.724854,122.036178 C172.643729,119.792193 173.604406,116.619193 173.604406,112.520889 L173.604406,98.8417333 L173.604406,98.8417333 Z" id="Fill-3" fill="#231F1F"></path>
                    <path d="M207.573948,0.904274074 L227.838656,0.904274074 L227.838656,113.710919 C227.838656,117.545733 228.532823,120.153407 229.923635,121.541363 C231.313208,122.929319 233.928729,123.821222 237.771438,124.217074 L237.771438,143.250126 C233.132917,143.250126 228.931969,142.883963 225.156198,142.160296 C221.380427,141.434156 218.203375,140.047437 215.618844,137.995193 C213.038031,135.949133 211.052219,133.074259 209.661406,129.373044 C208.270594,125.674304 207.573948,120.915422 207.573948,115.097637 L207.573948,0.904274074" id="Fill-4" fill="#231F1F"></path>
                    <path d="M7.57385417,157.242252 L5.64382292,157.242252 L5.64382292,156.808052 C5.64382292,156.36643 5.53969792,155.985422 5.33144792,155.663793 C5.12319792,155.3434 4.77363542,155.182585 4.28028125,155.182585 C4.01501042,155.182585 3.79808333,155.233304 3.62702083,155.333504 C3.45719792,155.434941 3.3245625,155.563593 3.23035417,155.720696 C3.13490625,155.879037 3.06920833,156.060881 3.03078125,156.268704 C2.99359375,156.476526 2.97376042,156.694244 2.97376042,156.920622 C2.97376042,157.185348 2.98367708,157.409252 3.00227083,157.591096 C3.02210417,157.774178 3.06920833,157.931281 3.14482292,158.063644 C3.2204375,158.196007 3.33076042,158.312289 3.47579167,158.413726 C3.62082292,158.513926 3.81915625,158.615363 4.07203125,158.715563 L5.54961458,159.300681 C5.97727083,159.465207 6.32435417,159.656948 6.589625,159.877141 C6.85489583,160.097333 7.06066667,160.355874 7.20569792,160.651526 C7.35072917,160.947178 7.44865625,161.287363 7.49823958,161.672081 C7.5490625,162.0568 7.57385417,162.493474 7.57385417,162.984578 C7.57385417,163.551141 7.51807292,164.078119 7.40403125,164.5618 C7.28998958,165.046719 7.10405208,165.462363 6.84497917,165.80997 C6.58714583,166.155104 6.24254167,166.429726 5.81364583,166.631363 C5.38475,166.833 4.86040625,166.9332 4.24309375,166.9332 C3.77577083,166.9332 3.34067708,166.851556 2.93657292,166.688267 C2.53246875,166.523741 2.18538542,166.301074 1.89532292,166.017793 C1.60526042,165.734511 1.37469792,165.3968 1.204875,165.005896 C1.0338125,164.61623 0.949520833,164.1944 0.949520833,163.740407 L0.949520833,163.022926 L2.87955208,163.022926 L2.87955208,163.6266 C2.87955208,163.980393 2.98367708,164.298311 3.19192708,164.581593 C3.40017708,164.864874 3.75097917,165.005896 4.24309375,165.005896 C4.57034375,165.005896 4.8269375,164.958889 5.00915625,164.864874 C5.191375,164.770859 5.33144792,164.638496 5.42565625,164.467785 C5.52110417,164.298311 5.58060417,164.086778 5.60539583,163.834422 C5.63142708,163.583304 5.64382292,163.306207 5.64382292,163.003133 C5.64382292,162.651815 5.63142708,162.361111 5.60539583,162.134733 C5.58060417,161.908356 5.5260625,161.725274 5.44548958,161.586726 C5.3624375,161.448178 5.24839583,161.335607 5.10460417,161.247778 C4.95833333,161.158711 4.76619792,161.064696 4.52695833,160.963259 L3.14482292,160.396696 C2.31182292,160.056511 1.75401042,159.60623 1.46890625,159.045852 C1.18628125,158.485474 1.04372917,157.784074 1.04372917,156.940415 C1.04372917,156.435704 1.11190625,155.95697 1.25197917,155.504215 C1.3908125,155.050222 1.59534375,154.660556 1.8668125,154.332741 C2.13828125,154.004926 2.48164583,153.743911 2.89814583,153.548459 C3.31464583,153.353007 3.8005625,153.256519 4.35589583,153.256519 C4.83561458,153.256519 5.27442708,153.344348 5.67233333,153.520007 C6.069,153.696904 6.40988542,153.929467 6.69375,154.218933 C6.97761458,154.509637 7.19578125,154.833741 7.34701042,155.192481 C7.49823958,155.551222 7.57385417,155.919859 7.57385417,156.297156 L7.57385417,157.242252" id="Fill-5" fill="#FF2FA4"></path>
                    <path d="M11.2281458,155.182585 L8.99441667,155.182585 L8.99441667,153.369089 L15.3931458,153.369089 L15.3931458,155.182585 L13.1594167,155.182585 L13.1594167,166.819393 L11.2281458,166.819393 L11.2281458,155.182585" id="Fill-6" fill="#FF2FA4"></path>
                    <path d="M17.1905417,153.369089 L20.2956979,153.369089 C22.5678542,153.369089 23.7033125,154.685296 23.7033125,157.317711 C23.7033125,158.098281 23.5793542,158.768756 23.3339167,159.329133 C23.0872396,159.889511 22.654625,160.339793 22.0373125,160.679978 L24.1185729,166.819393 L22.0757396,166.819393 L20.2758646,161.077067 L19.1218125,161.077067 L19.1218125,166.819393 L17.1905417,166.819393 L17.1905417,153.369089 L17.1905417,153.369089 Z M19.1218125,159.376141 L20.2188438,159.376141 C20.5597292,159.376141 20.8324375,159.329133 21.03325,159.235119 C21.2353021,159.139867 21.39025,159.00503 21.4980938,158.828133 C21.6046979,158.652474 21.6778333,158.435993 21.7150208,158.177452 C21.7534479,157.918911 21.7720417,157.619548 21.7720417,157.2806 C21.7720417,156.940415 21.7534479,156.641052 21.7150208,156.382511 C21.6778333,156.12397 21.5985,155.903778 21.4782604,155.720696 C21.3580208,155.538852 21.1919167,155.402778 20.9762292,155.314948 C20.7617813,155.227119 20.4791563,155.182585 20.1246354,155.182585 L19.1218125,155.182585 L19.1218125,159.376141 L19.1218125,159.376141 Z" id="Fill-7" fill="#FF2FA4"></path>
                    <path d="M28.3405937,153.369089 L29.9495729,153.369089 L32.9592812,166.819393 L31.02925,166.819393 L30.4602812,163.929674 L27.8298854,163.929674 L27.2621562,166.819393 L25.3308854,166.819393 L28.3405937,153.369089 L28.3405937,153.369089 Z M29.155,157.242252 L29.1165729,157.242252 L28.1707708,162.116178 L30.1008021,162.116178 L29.155,157.242252 L29.155,157.242252 Z" id="Fill-8" fill="#FF2FA4"></path>
                    <path d="M36.1214583,155.182585 L33.8864896,155.182585 L33.8864896,153.369089 L40.2852187,153.369089 L40.2852187,155.182585 L38.0514896,155.182585 L38.0514896,166.819393 L36.1214583,166.819393 L36.1214583,155.182585" id="Fill-9" fill="#FF2FA4"></path>
                    <path d="M42.0838542,153.369089 L47.838,153.369089 L47.838,155.182585 L44.0138854,155.182585 L44.0138854,159.131207 L47.3458854,159.131207 L47.3458854,160.944704 L44.0138854,160.944704 L44.0138854,164.893326 L47.838,164.893326 L47.838,166.819393 L42.0838542,166.819393 L42.0838542,153.369089" id="Fill-10" fill="#FF2FA4"></path>
                    <path d="M49.9205,156.543326 C49.9205,156.001504 50.0159479,155.52277 50.2043646,155.107126 C50.3940208,154.691481 50.6431771,154.348822 50.9518333,154.077911 C51.2617292,153.807 51.6088125,153.601652 51.9930833,153.464341 C52.3785938,153.325793 52.7665833,153.256519 53.1582917,153.256519 C53.5487604,153.256519 53.93675,153.325793 54.3222604,153.464341 C54.7065313,153.601652 55.0536146,153.807 55.3635104,154.077911 C55.6721667,154.348822 55.9213229,154.691481 56.1109792,155.107126 C56.3006354,155.52277 56.3948438,156.001504 56.3948438,156.543326 L56.3948438,157.223696 L54.4635729,157.223696 L54.4635729,156.543326 C54.4635729,156.076963 54.3346563,155.734304 54.0755833,155.512874 C53.8165104,155.293919 53.5103333,155.182585 53.1582917,155.182585 C52.8050104,155.182585 52.4988333,155.293919 52.2397604,155.512874 C51.9806875,155.734304 51.8517708,156.076963 51.8517708,156.543326 L51.8517708,163.646393 C51.8517708,164.111519 51.9806875,164.455415 52.2397604,164.675607 C52.4988333,164.8958 52.8050104,165.005896 53.1582917,165.005896 C53.5103333,165.005896 53.8165104,164.8958 54.0755833,164.675607 C54.3346563,164.455415 54.4635729,164.111519 54.4635729,163.646393 L54.4635729,161.115415 L52.9314479,161.115415 L52.9314479,159.414489 L56.3948438,159.414489 L56.3948438,163.646393 C56.3948438,164.200585 56.3006354,164.681793 56.1109792,165.091252 C55.9213229,165.500711 55.6721667,165.840896 55.3635104,166.111807 C55.0536146,166.382719 54.7065313,166.58683 54.3222604,166.725378 C53.93675,166.863926 53.5487604,166.9332 53.1582917,166.9332 C52.7665833,166.9332 52.3785938,166.863926 51.9930833,166.725378 C51.6088125,166.58683 51.2617292,166.382719 50.9518333,166.111807 C50.6431771,165.840896 50.3940208,165.500711 50.2043646,165.091252 C50.0159479,164.681793 49.9205,164.200585 49.9205,163.646393 L49.9205,156.543326" id="Fill-11" fill="#FF2FA4"></path>
                    <path d="M60.8424688,161.13397 L58.1934792,153.369089 L60.2375521,153.369089 L61.7895104,158.715563 L61.8279375,158.715563 L63.3798958,153.369089 L65.4239688,153.369089 L62.7749792,161.13397 L62.7749792,166.819393 L60.8424688,166.819393 L60.8424688,161.13397" id="Fill-12" fill="#FF2FA4"></path>
                    <path d="M67.2226042,164.893326 L69.153875,164.893326 L69.153875,166.82063 L67.2226042,166.82063 L67.2226042,164.893326 Z" id="Fill-13" fill="#FF2FA4"></path>
                    <path d="M77.2703229,153.369089 L83.0257083,153.369089 L83.0257083,155.182585 L79.2015937,155.182585 L79.2015937,159.131207 L82.5335937,159.131207 L82.5335937,160.944704 L79.2015937,160.944704 L79.2015937,164.893326 L83.0257083,164.893326 L83.0257083,166.819393 L77.2703229,166.819393 L77.2703229,153.369089" id="Fill-14" fill="#FF2FA4"></path>
                    <path d="M87.0010521,159.77323 L84.4834583,153.369089 L86.5275313,153.369089 L87.9852813,157.356059 L89.461625,153.369089 L91.5069375,153.369089 L88.9310833,159.77323 L91.7151875,166.819393 L89.669875,166.819393 L87.9852813,162.285652 L86.3192813,166.819393 L84.2752083,166.819393 L87.0010521,159.77323" id="Fill-15" fill="#FF2FA4"></path>
                    <path d="M93.5311771,153.369089 L99.2865625,153.369089 L99.2865625,155.182585 L95.4624479,155.182585 L95.4624479,159.131207 L98.7944479,159.131207 L98.7944479,160.944704 L95.4624479,160.944704 L95.4624479,164.893326 L99.2865625,164.893326 L99.2865625,166.819393 L93.5311771,166.819393 L93.5311771,153.369089" id="Fill-16" fill="#FF2FA4"></path>
                    <path d="M107.616563,163.815867 C107.616563,164.231511 107.537229,164.6286 107.379802,165.005896 C107.221135,165.38443 107.004208,165.714719 106.726542,165.998 C106.448875,166.281281 106.124104,166.508896 105.75099,166.67837 C105.379115,166.847844 104.978729,166.9332 104.549833,166.9332 C104.182917,166.9332 103.811042,166.882481 103.432969,166.782281 C103.053656,166.682081 102.712771,166.508896 102.410313,166.262726 C102.106615,166.017793 101.857458,165.692452 101.661604,165.290415 C101.46699,164.887141 101.369063,164.376244 101.369063,163.758963 L101.369063,156.354059 C101.369063,155.913674 101.444677,155.504215 101.595906,155.125681 C101.747135,154.748385 101.961583,154.42057 102.23925,154.143474 C102.516917,153.866378 102.849125,153.649896 103.233396,153.492793 C103.618906,153.334452 104.044083,153.256519 104.511406,153.256519 C104.952698,153.256519 105.363,153.334452 105.742313,153.492793 C106.120385,153.649896 106.448875,153.870089 106.726542,154.15337 C107.004208,154.436652 107.221135,154.776837 107.379802,155.172689 C107.537229,155.569778 107.616563,156.001504 107.616563,156.467867 L107.616563,157.223696 L105.685292,157.223696 L105.685292,156.580437 C105.685292,156.203141 105.577448,155.875326 105.363,155.59823 C105.148552,155.32237 104.85849,155.182585 104.492813,155.182585 C104.013094,155.182585 103.694521,155.33103 103.537094,155.626681 C103.378427,155.922333 103.300333,156.297156 103.300333,156.751148 L103.300333,163.6266 C103.300333,164.017504 103.385865,164.345319 103.555688,164.610044 C103.72551,164.87477 104.031688,165.005896 104.474219,165.005896 C104.599417,165.005896 104.734531,164.984867 104.880802,164.940333 C105.025833,164.8958 105.158469,164.824052 105.277469,164.722615 C105.397708,164.622415 105.495635,164.483867 105.57125,164.30697 C105.646865,164.131311 105.685292,163.909881 105.685292,163.646393 L105.685292,162.984578 L107.616563,162.984578 L107.616563,163.815867" id="Fill-17" fill="#FF2FA4"></path>
                    <path d="M116.380417,163.797311 C116.380417,164.238933 116.298604,164.647156 116.134979,165.025689 C115.970115,165.402985 115.74699,165.734511 115.463125,166.017793 C115.178021,166.301074 114.847052,166.523741 114.468979,166.688267 C114.089667,166.851556 113.685563,166.9332 113.256667,166.9332 C112.827771,166.9332 112.424906,166.851556 112.045594,166.688267 C111.667521,166.523741 111.335313,166.301074 111.051448,166.017793 C110.767583,165.734511 110.544458,165.402985 110.379594,165.025689 C110.215969,164.647156 110.132917,164.238933 110.132917,163.797311 L110.132917,153.369089 L112.064188,153.369089 L112.064188,163.608044 C112.064188,164.086778 112.178229,164.439333 112.405073,164.666948 C112.633156,164.893326 112.917021,165.005896 113.256667,165.005896 C113.597552,165.005896 113.881417,164.893326 114.1095,164.666948 C114.336344,164.439333 114.449146,164.086778 114.449146,163.608044 L114.449146,153.369089 L116.380417,153.369089 L116.380417,163.797311" id="Fill-18" fill="#FF2FA4"></path>
                    <path d="M120.412781,155.182585 L118.179052,155.182585 L118.179052,153.369089 L124.577781,153.369089 L124.577781,155.182585 L122.344052,155.182585 L122.344052,166.819393 L120.412781,166.819393 L120.412781,155.182585" id="Fill-19" fill="#FF2FA4"></path>
                    <path d="M126.432198,153.369089 L128.363469,153.369089 L128.363469,166.82063 L126.432198,166.82063 L126.432198,153.369089 Z" id="Fill-20" fill="#FF2FA4"></path>
                    <path d="M131.070719,156.543326 C131.070719,156.001504 131.164927,155.52277 131.354583,155.107126 C131.543,154.691481 131.792156,154.348822 132.102052,154.077911 C132.410708,153.807 132.757792,153.601652 133.142063,153.464341 C133.527573,153.325793 133.915563,153.256519 134.307271,153.256519 C134.69774,153.256519 135.085729,153.325793 135.47124,153.464341 C135.85551,153.601652 136.202594,153.807 136.51249,154.077911 C136.822385,154.348822 137.071542,154.691481 137.259958,155.107126 C137.449615,155.52277 137.543823,156.001504 137.543823,156.543326 L137.543823,163.646393 C137.543823,164.200585 137.449615,164.681793 137.259958,165.091252 C137.071542,165.500711 136.822385,165.840896 136.51249,166.111807 C136.202594,166.382719 135.85551,166.58683 135.47124,166.725378 C135.085729,166.863926 134.69774,166.9332 134.307271,166.9332 C133.915563,166.9332 133.527573,166.863926 133.142063,166.725378 C132.757792,166.58683 132.410708,166.382719 132.102052,166.111807 C131.792156,165.840896 131.543,165.500711 131.354583,165.091252 C131.164927,164.681793 131.070719,164.200585 131.070719,163.646393 L131.070719,156.543326 L131.070719,156.543326 Z M133.00075,163.646393 C133.00075,164.111519 133.129667,164.455415 133.38874,164.675607 C133.647813,164.8958 133.95399,165.005896 134.307271,165.005896 C134.660552,165.005896 134.966729,164.8958 135.225802,164.675607 C135.483635,164.455415 135.613792,164.111519 135.613792,163.646393 L135.613792,156.543326 C135.613792,156.076963 135.483635,155.734304 135.225802,155.512874 C134.966729,155.293919 134.660552,155.182585 134.307271,155.182585 C133.95399,155.182585 133.647813,155.293919 133.38874,155.512874 C133.129667,155.734304 133.00075,156.076963 133.00075,156.543326 L133.00075,163.646393 L133.00075,163.646393 Z" id="Fill-21" fill="#FF2FA4"></path>
                    <path d="M140.118438,153.369089 L141.974094,153.369089 L144.889594,161.474156 L144.926781,161.474156 L144.926781,153.369089 L146.856813,153.369089 L146.856813,166.819393 L145.040823,166.819393 L142.086896,158.734119 L142.049708,158.734119 L142.049708,166.819393 L140.118438,166.819393 L140.118438,153.369089" id="Fill-22" fill="#FF2FA4"></path>
                    <path d="M149.432667,164.893326 L151.363938,164.893326 L151.363938,166.82063 L149.432667,166.82063 L149.432667,164.893326 Z" id="Fill-23" fill="#FF2FA4"></path>
                    <path d="M162.266073,166.819393 L160.562885,166.819393 L157.817208,153.369089 L159.862521,153.369089 L161.395885,162.7582 L161.433073,162.7582 L162.985031,153.369089 L165.030344,153.369089 L162.266073,166.819393" id="Fill-24" fill="#FF2FA4"></path>
                    <path d="M169.270958,153.369089 L170.879937,153.369089 L173.889646,166.819393 L171.958375,166.819393 L171.390646,163.929674 L168.76025,163.929674 L168.191281,166.819393 L166.26125,166.819393 L169.270958,153.369089 L169.270958,153.369089 Z M170.085365,157.242252 L170.046937,157.242252 L169.101135,162.116178 L171.032406,162.116178 L170.085365,157.242252 L170.085365,157.242252 Z" id="Fill-25" fill="#FF2FA4"></path>
                    <path d="M175.78249,153.369089 L177.71376,153.369089 L177.71376,164.893326 L181.537875,164.893326 L181.537875,166.819393 L175.78249,166.819393 L175.78249,153.369089" id="Fill-26" fill="#FF2FA4"></path>
                    <path d="M183.790198,153.369089 L185.721469,153.369089 L185.721469,166.82063 L183.790198,166.82063 L183.790198,153.369089 Z" id="Fill-27" fill="#FF2FA4"></path>
                    <path d="M188.541521,153.369089 L191.4,153.369089 C192.498271,153.369089 193.337469,153.674637 193.917594,154.285733 C194.497719,154.89683 194.787781,155.749148 194.787781,156.845163 L194.787781,163.135496 C194.787781,164.3948 194.481604,165.323815 193.87049,165.922541 C193.258135,166.521267 192.378031,166.819393 191.228938,166.819393 L188.541521,166.819393 L188.541521,153.369089 L188.541521,153.369089 Z M190.472792,165.005896 L191.362813,165.005896 C191.90451,165.005896 192.290021,164.871059 192.516865,164.600148 C192.743708,164.329237 192.85775,163.904933 192.85775,163.324763 L192.85775,156.845163 C192.85775,156.315711 192.749906,155.907489 192.535458,155.616785 C192.32101,155.327319 191.930542,155.182585 191.362813,155.182585 L190.472792,155.182585 L190.472792,165.005896 L190.472792,165.005896 Z" id="Fill-28" fill="#FF2FA4"></path>
                    <path d="M199.692813,153.369089 L201.300552,153.369089 L204.31026,166.819393 L202.37899,166.819393 L201.81126,163.929674 L199.180865,163.929674 L198.611896,166.819393 L196.681865,166.819393 L199.692813,153.369089 L199.692813,153.369089 Z M200.505979,157.242252 L200.467552,157.242252 L199.52175,162.116178 L201.451781,162.116178 L200.505979,157.242252 L200.505979,157.242252 Z" id="Fill-29" fill="#FF2FA4"></path>
                    <path d="M207.471198,155.182585 L205.237469,155.182585 L205.237469,153.369089 L211.636198,153.369089 L211.636198,155.182585 L209.402469,155.182585 L209.402469,166.819393 L207.471198,166.819393 L207.471198,155.182585" id="Fill-30" fill="#FF2FA4"></path>
                    <path d="M213.491854,153.369089 L215.423125,153.369089 L215.423125,166.82063 L213.491854,166.82063 L213.491854,153.369089 Z" id="Fill-31" fill="#FF2FA4"></path>
                    <path d="M218.130375,156.543326 C218.130375,156.001504 218.224583,155.52277 218.413,155.107126 C218.602656,154.691481 218.851812,154.348822 219.161708,154.077911 C219.470365,153.807 219.817448,153.601652 220.201719,153.464341 C220.587229,153.325793 220.975219,153.256519 221.366927,153.256519 C221.757396,153.256519 222.146625,153.325793 222.530896,153.464341 C222.916406,153.601652 223.26225,153.807 223.572146,154.077911 C223.880802,154.348822 224.129958,154.691481 224.319615,155.107126 C224.509271,155.52277 224.603479,156.001504 224.603479,156.543326 L224.603479,163.646393 C224.603479,164.200585 224.509271,164.681793 224.319615,165.091252 C224.129958,165.500711 223.880802,165.840896 223.572146,166.111807 C223.26225,166.382719 222.916406,166.58683 222.530896,166.725378 C222.146625,166.863926 221.757396,166.9332 221.366927,166.9332 C220.975219,166.9332 220.587229,166.863926 220.201719,166.725378 C219.817448,166.58683 219.470365,166.382719 219.161708,166.111807 C218.851812,165.840896 218.602656,165.500711 218.413,165.091252 C218.224583,164.681793 218.130375,164.200585 218.130375,163.646393 L218.130375,156.543326 L218.130375,156.543326 Z M220.060406,163.646393 C220.060406,164.111519 220.190562,164.455415 220.448396,164.675607 C220.707469,164.8958 221.013646,165.005896 221.366927,165.005896 C221.720208,165.005896 222.026385,164.8958 222.284219,164.675607 C222.543292,164.455415 222.673448,164.111519 222.673448,163.646393 L222.673448,156.543326 C222.673448,156.076963 222.543292,155.734304 222.284219,155.512874 C222.026385,155.293919 221.720208,155.182585 221.366927,155.182585 C221.013646,155.182585 220.707469,155.293919 220.448396,155.512874 C220.190562,155.734304 220.060406,156.076963 220.060406,156.543326 L220.060406,163.646393 L220.060406,163.646393 Z" id="Fill-32" fill="#FF2FA4"></path>
                    <path d="M227.178094,153.369089 L229.03375,153.369089 L231.94925,161.474156 L231.986438,161.474156 L231.986438,153.369089 L233.917708,153.369089 L233.917708,166.819393 L232.100479,166.819393 L229.146552,158.734119 L229.109365,158.734119 L229.109365,166.819393 L227.178094,166.819393 L227.178094,153.369089" id="Fill-33" fill="#FF2FA4"></path>
                    <path d="M236.492323,164.893326 L238.423594,164.893326 L238.423594,166.82063 L236.492323,166.82063 L236.492323,164.893326 Z" id="Fill-34" fill="#FF2FA4"></path>
                </g>
            </g>
        </g>
    </g>
</svg>