<?xml version="1.0" encoding="UTF-8" standalone="no"?>
<svg width="44px" height="44px" viewBox="0 0 44 44" version="1.1" xmlns="http://www.w3.org/2000/svg" xmlns:xlink="http://www.w3.org/1999/xlink" xmlns:sketch="http://www.bohemiancoding.com/sketch/ns">
    <!-- Generator: Sketch 3.3.2 (12043) - http://www.bohemiancoding.com/sketch -->
    <title>Imported Layers</title>
    <desc>Created with Sketch.</desc>
    <defs></defs>
    <g id="Account-Management" stroke="none" stroke-width="1" fill="none" fill-rule="evenodd" sketch:type="MSPage">
        <g id="Home" sketch:type="MSArtboardGroup" transform="translate(-739.000000, -164.000000)" fill="#F27490">
            <g id="Expanded-Nav" sketch:type="MSLayerGroup" transform="translate(0.000000, 1.000000)">
                <g id="Nav" transform="translate(408.000000, 80.000000)" sketch:type="MSShapeGroup">
                    <g id="Approach" transform="translate(0.000000, 58.000000)">
                        <path d="M353.631,25.0249283 C353.376,25.0089283 353.133,25.0669283 352.913,25.1729283 C352.693,25.0509283 352.443,24.9849283 352.174,25.0029283 C340.498,25.2149283 331,34.8889283 331,46.5689283 C331,49.9869283 331.823,53.3949283 333.38,56.4249283 C333.498,56.6539283 333.674,56.8399283 333.88,56.9789283 C333.89,57.2289283 333.957,57.4769283 334.091,57.6989283 C337.978,64.1389283 345.059,68.1389283 352.57,68.1389283 C359.923,68.1389283 366.7,64.4459283 370.699,58.2619283 C370.839,58.0449283 370.912,57.7999283 370.929,57.5509283 C371.142,57.4179283 371.323,57.2359283 371.449,57.0089283 C373.209,53.8299283 374.14,50.2199283 374.14,46.5689283 C374.14,35.0469283 365.131,25.5839283 353.631,25.0249283 L353.631,25.0249283 Z M359.132,49.9889283 C359.041,50.1619283 358.999,50.3489283 358.98,50.5379283 C358.818,50.6379283 358.669,50.7609283 358.553,50.9209283 C357.161,52.8289283 354.924,53.9689283 352.57,53.9689283 C350.068,53.9689283 347.676,52.6549283 346.327,50.5389283 C346.221,50.3739283 346.08,50.2429283 345.924,50.1329283 C345.918,49.9419283 345.887,49.7519283 345.807,49.5729283 C345.384,48.6209283 345.17,47.6109283 345.17,46.5689283 C345.17,42.5929283 348.28,39.3459283 352.25,39.1759283 C352.447,39.1679283 352.633,39.1109283 352.807,39.0309283 C352.975,39.1209283 353.156,39.1889283 353.351,39.2089283 C357.124,39.6059283 359.97,42.7699283 359.97,46.5689283 C359.97,47.7549283 359.68,48.9379283 359.132,49.9889283 L359.132,49.9889283 Z M351.363,28.0379283 L353.733,32.0769283 L351.286,36.2479283 C346.111,36.8819283 342.17,41.2639283 342.17,46.5689283 C342.17,47.2799283 342.241,47.9809283 342.382,48.6669283 L337.907,48.6359283 L337.896,48.6359283 C337.356,48.6359283 336.858,48.9249283 336.592,49.3949283 L334.919,52.3409283 C334.314,50.4829283 334,48.5279283 334,46.5689283 C334,36.8039283 341.712,28.6669283 351.363,28.0379283 L351.363,28.0379283 Z M352.57,65.1389283 C346.392,65.1389283 340.553,61.9949283 337.125,56.8799283 L339.438,52.8069283 L344.277,52.8409283 C346.229,55.4059283 349.334,56.9689283 352.57,56.9689283 C355.13,56.9689283 357.59,56.0119283 359.478,54.3369283 L361.692,58.2339283 C361.96,58.7069283 362.493,58.9799283 363.007,58.9929283 L366.396,58.9689283 C362.899,62.8749283 357.911,65.1389283 352.57,65.1389283 L352.57,65.1389283 Z M369.226,54.7879283 L364.538,54.8219283 L362.149,50.6169283 C362.688,49.3399283 362.97,47.9559283 362.97,46.5689283 C362.97,41.9919283 360.03,38.0709283 355.848,36.6939283 L358.112,32.8359283 C358.387,32.3669283 358.387,31.7859283 358.111,31.3179283 L356.394,28.3909283 C364.862,30.1549283 371.14,37.6449283 371.14,46.5689283 C371.14,49.4229283 370.48,52.2459283 369.226,54.7879283 L369.226,54.7879283 Z" id="Imported-Layers"></path>
                    </g>
                </g>
            </g>
        </g>
    </g>
</svg>