<?xml version="1.0" encoding="UTF-8" standalone="no"?>
<svg width="41px" height="26px" viewBox="0 0 41 26" version="1.1" xmlns="http://www.w3.org/2000/svg" xmlns:xlink="http://www.w3.org/1999/xlink" xmlns:sketch="http://www.bohemiancoding.com/sketch/ns">
    <!-- Generator: Sketch 3.3.2 (12043) - http://www.bohemiancoding.com/sketch -->
    <title>clients icon</title>
    <desc>Created with Sketch.</desc>
    <defs></defs>
    <g id="Account-Management" stroke="none" stroke-width="1" fill="none" fill-rule="evenodd" sketch:type="MSPage">
        <g id="Home" sketch:type="MSArtboardGroup" transform="translate(-743.000000, -339.000000)" fill="#F27490">
            <g id="Expanded-Nav" sketch:type="MSLayerGroup" transform="translate(0.000000, 1.000000)">
                <g id="Nav" transform="translate(408.000000, 80.000000)" sketch:type="MSShapeGroup">
                    <g id="Clients" transform="translate(0.000000, 225.000000)">
                        <path d="M375.45742,46.3447929 L369.39642,34.2857929 C369.27042,34.0327929 369.04142,33.8457929 368.76842,33.7707929 C368.49542,33.6947929 368.20342,33.7397929 367.96442,33.8917929 L363.55742,36.7077929 C363.49642,36.7467929 363.45542,36.8017929 363.40542,36.8507929 L362.16242,37.1567929 C360.78342,37.0647929 359.24742,36.2617929 358.95242,36.0997929 C357.92942,35.3287929 356.87842,34.9377929 355.82742,34.9377929 C354.81242,34.9377929 353.99642,35.3067929 353.39742,35.7047929 L345.68542,35.9887929 L340.92042,33.1417929 C340.66142,32.9877929 340.34642,32.9567929 340.06342,33.0607929 C339.78042,33.1647929 339.55842,33.3907929 339.46142,33.6757929 L335.05442,46.5307929 C334.88842,47.0137929 335.11342,47.5437929 335.57642,47.7607929 L339.73942,49.7057929 C339.87342,49.7687929 340.01742,49.7997929 340.16242,49.7997929 C340.28042,49.7997929 340.39942,49.7787929 340.51242,49.7367929 C340.76342,49.6427929 340.96642,49.4527929 341.07542,49.2067929 L341.37542,48.5357929 L342.04942,48.8407929 C341.83242,49.6157929 342.05042,50.4827929 342.69442,51.0497929 C343.07742,51.3877929 343.56842,51.5737929 344.08042,51.5837929 C344.17942,52.1227929 344.44242,52.6347929 344.88442,53.0237929 C345.34542,53.4297929 345.93742,53.6527929 346.55342,53.6527929 C346.67742,53.6527929 346.79742,53.6307929 346.91742,53.6137929 C347.02142,54.1417929 347.28242,54.6417929 347.71642,55.0237929 C348.17742,55.4297929 348.77042,55.6537929 349.38642,55.6537929 C349.40242,55.6537929 349.41642,55.6487929 349.43242,55.6487929 C349.54742,56.1427929 349.80742,56.6067929 350.21642,56.9667929 C350.67742,57.3717929 351.27042,57.5957929 351.88642,57.5957929 C352.61442,57.5957929 353.30742,57.2837929 353.78542,56.7397929 L353.86742,56.6467929 L355.10242,57.7587929 C355.18942,57.8377929 355.28942,57.8997929 355.39842,57.9437929 C355.48442,57.9777929 355.98442,58.1677929 356.60642,58.1677929 C357.00542,58.1677929 357.45442,58.0897929 357.87542,57.8427929 C358.10142,57.7097929 358.35442,57.5047929 358.57342,57.1927929 C358.86342,57.3047929 359.21842,57.3907929 359.60842,57.3907929 C360.28042,57.3907929 361.04042,57.1437929 361.68342,56.3687929 C361.72742,56.3137929 361.76742,56.2547929 361.80042,56.1927929 C361.85042,56.0967929 361.95142,55.8797929 362.04642,55.6067929 C362.09842,55.6157929 362.14042,55.6377929 362.19442,55.6427929 C362.26342,55.6497929 362.33742,55.6537929 362.41642,55.6537929 C362.97442,55.6537929 363.74042,55.4597929 364.54942,54.6707929 C364.58942,54.6317929 364.62642,54.5897929 364.65942,54.5437929 C364.91942,54.1857929 365.12342,53.7797929 365.24842,53.3657929 C365.31542,53.3707929 365.37842,53.3867929 365.44742,53.3867929 C366.11342,53.3867929 366.83142,53.1517929 367.49042,52.5197929 C367.58042,52.4457929 368.36842,51.7567929 368.44442,50.5987929 C368.47942,50.0577929 368.33842,49.5237929 368.06042,49.0007929 L368.66642,48.5887929 L369.14542,49.5167929 C369.32242,49.8607929 369.67142,50.0587929 370.03442,50.0587929 C370.18442,50.0587929 370.33742,50.0247929 370.48042,49.9527929 L375.01042,47.6877929 C375.24742,47.5697929 375.42842,47.3607929 375.51242,47.1087929 C375.59642,46.8567929 375.57642,46.5817929 375.45742,46.3447929 L375.45742,46.3447929 Z M339.66442,47.4627929 L337.23742,46.3287929 L340.95342,35.4917929 L344.15142,37.4027929 L339.66442,47.4627929 L339.66442,47.4627929 Z M344.89342,48.7987929 L344.24542,49.5337929 C344.16242,49.6277929 344.08742,49.6117929 344.01642,49.5487929 C343.95042,49.4917929 343.94342,49.3837929 344.00142,49.3177929 L344.64842,48.5827929 C344.68942,48.5367929 344.74342,48.5287929 344.77142,48.5287929 C344.80042,48.5287929 344.84142,48.5357929 344.87842,48.5687929 C344.94442,48.6267929 344.95142,48.7327929 344.89342,48.7987929 L344.89342,48.7987929 Z M348.25942,49.9907929 L346.95242,51.4747929 C346.79342,51.6557929 346.53342,51.8117929 346.20642,51.5227929 C345.99042,51.3327929 345.96842,50.9907929 346.15842,50.7757929 L347.46542,49.2907929 C347.56442,49.1777929 347.70942,49.1137929 347.86442,49.1137929 C347.95542,49.1137929 348.09042,49.1357929 348.21142,49.2437929 C348.42742,49.4327929 348.44942,49.7747929 348.25942,49.9907929 L348.25942,49.9907929 Z M351.09242,51.9917929 L349.78542,53.4747929 C349.62742,53.6557929 349.36842,53.8117929 349.03842,53.5227929 C348.82342,53.3337929 348.80142,52.9907929 348.99142,52.7757929 L350.29842,51.2917929 C350.39742,51.1787929 350.54242,51.1137929 350.69642,51.1137929 C350.78742,51.1137929 350.92242,51.1367929 351.04442,51.2447929 C351.26042,51.4337929 351.28242,51.7757929 351.09242,51.9917929 L351.09242,51.9917929 Z M353.59242,53.9327929 L352.28442,55.4177929 C352.12642,55.5987929 351.86742,55.7537929 351.53742,55.4657929 C351.32242,55.2757929 351.30142,54.9337929 351.49042,54.7187929 L352.79742,53.2337929 C352.89742,53.1207929 353.04242,53.0567929 353.19642,53.0567929 C353.28742,53.0567929 353.42242,53.0787929 353.54442,53.1867929 C353.75942,53.3757929 353.78142,53.7187929 353.59242,53.9327929 L353.59242,53.9327929 Z M356.86442,56.1167929 C356.73742,56.1927929 356.47442,56.1747929 356.28042,56.1277929 L355.17842,55.1357929 C355.31542,54.9607929 355.42342,54.7737929 355.50742,54.5767929 L356.99142,55.9387929 C356.95542,56.0227929 356.91342,56.0877929 356.86442,56.1167929 L356.86442,56.1167929 Z M366.15942,51.0287929 C365.54042,51.6217929 365.01542,51.3437929 364.76542,51.1307929 L358.03142,45.0707929 C357.62142,44.7007929 356.98842,44.7347929 356.61942,45.1447929 C356.24942,45.5557929 356.28342,46.1877929 356.69342,46.5577929 L363.37942,52.5747929 C363.38042,52.7227929 363.24742,53.0527929 363.08642,53.3017929 C362.88742,53.4847929 362.62042,53.6697929 362.38742,53.6517929 C362.14142,53.6337929 361.90842,53.3907929 361.85442,53.3197929 C361.80942,53.2567929 361.75842,53.1987929 361.70042,53.1477929 L354.96742,47.1487929 C354.55442,46.7807929 353.92142,46.8177929 353.55542,47.2297929 C353.18742,47.6417929 353.22442,48.2747929 353.63742,48.6417929 L360.25742,54.5407929 C360.24642,54.6897929 360.17042,54.9507929 360.07342,55.1697929 C359.78942,55.4547929 359.49742,55.4247929 359.28742,55.3327929 L352.65242,49.2397929 C352.27742,48.8957929 351.71842,48.9067929 351.33942,49.2277929 C351.01142,49.1487929 350.67142,49.1327929 350.33642,49.1787929 C350.23742,48.6417929 349.97442,48.1307929 349.53342,47.7427929 C348.72242,47.0287929 347.48142,46.9717929 346.56442,47.4977929 C346.46142,47.3427929 346.34542,47.1957929 346.20042,47.0677929 C345.36942,46.3367929 344.00942,46.4037929 343.23442,47.1817929 L342.19042,46.7097929 L346.08542,37.9757929 L351.44942,37.7777929 L348.77842,41.2337929 C348.18742,41.9027929 347.78042,43.3457929 349.08442,44.5817929 C349.76542,45.2257929 350.42842,45.3617929 350.86442,45.3617929 C351.88342,45.3617929 352.53342,44.6587929 352.58542,44.5987929 L355.09442,41.9047929 C355.12242,41.8747929 355.14842,41.8437929 355.17342,41.8097929 C355.43542,41.4477929 355.61642,41.3657929 355.65942,41.3657929 C355.72042,41.3657929 355.86942,41.4737929 355.93942,41.5627929 C355.98542,41.6267929 356.03942,41.6857929 356.09942,41.7367929 L364.78742,49.2027929 C365.33142,49.6737929 365.85742,49.7857929 366.22242,49.7957929 C366.35542,50.0027929 366.45842,50.2297929 366.44942,50.4517929 C366.43542,50.7717929 366.19642,50.9947929 366.15942,51.0287929 L366.15942,51.0287929 Z M366.53442,47.6187929 C366.49342,47.6467929 366.42042,47.7107929 366.38442,47.7447929 C366.35442,47.7707929 366.30042,47.7997929 366.27942,47.7997929 C366.26542,47.7997929 366.20042,47.7797929 366.09442,47.6877929 L357.47242,40.2797929 C357.23942,40.0047929 356.59942,39.3657929 355.65942,39.3657929 C355.12742,39.3657929 354.34142,39.5787929 353.59242,40.5837929 L351.12142,43.2357929 C351.09542,43.2627929 350.97442,43.3617929 350.86442,43.3617929 C350.76342,43.3617929 350.61542,43.2767929 350.46042,43.1297929 C350.20642,42.8887929 350.15842,42.7167929 350.31842,42.5087929 L353.87342,37.9117929 C353.88142,37.9017929 354.64742,36.9377929 355.82742,36.9377929 C356.44742,36.9377929 357.10942,37.2047929 357.79342,37.7307929 C357.82842,37.7587929 357.86542,37.7827929 357.90442,37.8057929 C357.99542,37.8577929 360.16442,39.0937929 362.22642,39.1627929 C362.32042,39.1667929 362.40942,39.1557929 362.49842,39.1337929 L363.55442,38.8737929 L367.52742,46.9447929 L366.53442,47.6187929 L366.53442,47.6187929 Z M370.46942,47.7217929 L365.40242,37.9027929 L368.10742,36.1747929 L373.22042,46.3477929 L370.46942,47.7217929 L370.46942,47.7217929 Z" id="clients-icon"></path>
                    </g>
                </g>
            </g>
        </g>
    </g>
</svg>