<?xml version="1.0" encoding="UTF-8" standalone="no"?>
<svg width="38px" height="38px" viewBox="0 0 38 38" version="1.1" xmlns="http://www.w3.org/2000/svg" xmlns:xlink="http://www.w3.org/1999/xlink" xmlns:sketch="http://www.bohemiancoding.com/sketch/ns">
    <!-- Generator: Sketch 3.3.2 (12043) - http://www.bohemiancoding.com/sketch -->
    <title>Engineers icon</title>
    <desc>Created with Sketch.</desc>
    <defs></defs>
    <g id="Account-Management" stroke="none" stroke-width="1" fill="none" fill-rule="evenodd" sketch:type="MSPage">
        <g id="Home" sketch:type="MSArtboardGroup" transform="translate(-246.000000, -3072.000000)" fill="#000000">
            <g id="Jobs" sketch:type="MSLayerGroup" transform="translate(152.000000, 2830.000000)">
                <g id="Who-we-are-+-what-we-expect-+-Perks" transform="translate(0.000000, 187.000000)" sketch:type="MSShapeGroup">
                    <g id="Engineers" transform="translate(94.000000, 55.000000)">
                        <g id="Engineers-icon">
                            <path d="M4.46922222,27.1755 L33.8706667,27.1755 C34.371,27.1755 34.7773889,26.5995 34.7773889,25.887 L34.7773889,1.9455 C34.7773889,1.233 34.371,0.657 33.8706667,0.657 L4.46922222,0.657 C3.96783333,0.657 3.5625,1.233 3.5625,1.9455 L3.5625,25.887 C3.5625,26.5995 3.96783333,27.1755 4.46922222,27.1755 L4.46922222,27.1755 Z M19.1699444,0.9345 C19.4106111,0.9345 19.6058889,1.212 19.6058889,1.5555 C19.6058889,1.8975 19.4106111,2.175 19.1699444,2.175 C18.9282222,2.175 18.7329444,1.8975 18.7329444,1.5555 C18.7329444,1.212 18.9282222,0.9345 19.1699444,0.9345 L19.1699444,0.9345 Z M4.82283333,2.91 C4.82283333,2.655 4.9685,2.448 5.14794444,2.448 L33.1919444,2.448 C33.3713889,2.448 33.516,2.655 33.516,2.91 L33.516,24.924 C33.516,25.179 33.3713889,25.3845 33.1919444,25.3845 L5.14794444,25.3845 C4.9685,25.3845 4.82283333,25.179 4.82283333,24.924 L4.82283333,2.91 L4.82283333,2.91 Z" id="Fill-1"></path>
                            <path d="M33.8706667,27.3645 L4.46922222,27.3645 C3.89605556,27.3645 3.43055556,26.7015 3.43055556,25.887 L3.43055556,1.944 C3.43055556,1.131 3.89605556,0.4695 4.46922222,0.4695 L33.8706667,0.4695 C34.4427778,0.4695 34.9082778,1.131 34.9082778,1.944 L34.9082778,25.887 C34.9082778,26.7015 34.4427778,27.3645 33.8706667,27.3645 L33.8706667,27.3645 Z M4.46922222,0.8445 C4.04172222,0.8445 3.69444444,1.338 3.69444444,1.944 L3.69444444,25.887 C3.69444444,26.4945 4.04172222,26.9895 4.46922222,26.9895 L33.8706667,26.9895 C34.2971111,26.9895 34.6443889,26.4945 34.6443889,25.887 L34.6443889,1.944 C34.6443889,1.338 34.2971111,0.8445 33.8706667,0.8445 L19.4391111,0.8445 C19.6175,0.981 19.7378333,1.248 19.7378333,1.5555 C19.7378333,1.857 19.6206667,2.1225 19.4465,2.2605 L33.1908889,2.2605 C33.4431667,2.2605 33.6479444,2.5515 33.6479444,2.91 L33.6479444,24.924 C33.6479444,25.2825 33.4431667,25.572 33.1908889,25.572 L5.14794444,25.572 C4.89566667,25.572 4.69088889,25.2825 4.69088889,24.924 L4.69088889,2.91 C4.69088889,2.5515 4.89566667,2.2605 5.14794444,2.2605 L18.8923333,2.2605 C18.7181667,2.1225 18.601,1.857 18.601,1.5555 C18.601,1.248 18.7223889,0.981 18.8997222,0.8445 L4.46922222,0.8445 L4.46922222,0.8445 Z M5.14794444,2.6355 C5.04133333,2.6355 4.95477778,2.7585 4.95477778,2.91 L4.95477778,24.924 C4.95477778,25.074 5.04133333,25.197 5.14794444,25.197 L33.1908889,25.197 C33.2975,25.197 33.3840556,25.074 33.3840556,24.924 L33.3840556,2.91 C33.3840556,2.7585 33.2975,2.6355 33.1908889,2.6355 L5.14794444,2.6355 L5.14794444,2.6355 Z M19.1699444,1.122 C19.0021111,1.122 18.8648889,1.3155 18.8648889,1.5555 C18.8648889,1.794 19.0021111,1.9875 19.1699444,1.9875 C19.3377778,1.9875 19.4739444,1.794 19.4739444,1.5555 C19.4739444,1.3155 19.3377778,1.122 19.1699444,1.122 L19.1699444,1.122 Z" id="Fill-2"></path>
                            <path d="M37.3993889,35.553 L0.939444444,35.553 C0.925722222,35.6505 0.918333333,35.751 0.918333333,35.8545 L0.918333333,35.8845 C0.918333333,36.714 1.39227778,37.386 1.97494444,37.386 L36.3638889,37.386 C36.9476111,37.386 37.4205,36.714 37.4205,35.8845 L37.4205,35.8545 C37.4205,35.751 37.4131111,35.6505 37.3993889,35.553" id="Fill-3"></path>
                            <path d="M36.3638889,37.5735 L1.97494444,37.5735 C1.31944444,37.5735 0.786388889,36.816 0.786388889,35.8845 C0.786388889,35.745 0.793777778,35.631 0.810666667,35.517 L0.830722222,35.3655 L37.506,35.3655 L37.5281667,35.514 C37.544,35.625 37.5524444,35.739 37.5524444,35.8545 C37.5524444,36.816 37.0193889,37.5735 36.3638889,37.5735 L36.3638889,37.5735 Z M1.05344444,35.7405 C1.05133333,35.778 1.05027778,35.8155 1.05027778,35.8545 C1.05027778,36.609 1.46511111,37.1985 1.97494444,37.1985 L36.3638889,37.1985 C36.8747778,37.1985 37.2885556,36.609 37.2885556,35.8845 C37.2885556,35.8305 37.2875,35.784 37.2843333,35.7405 L1.05344444,35.7405 L1.05344444,35.7405 Z" id="Fill-4"></path>
                            <path d="M1.53688889,35.064 L36.803,35.064 C37.1154444,35.064 37.3170556,34.593 37.1724444,34.1985 L34.9969444,28.263 C34.9251667,28.0665 34.7826667,27.9435 34.6275,27.9435 L3.71133333,27.9435 C3.55616667,27.9435 3.41366667,28.0665 3.34188889,28.263 L1.16638889,34.1985 C1.02177778,34.593 1.22338889,35.064 1.53688889,35.064 L1.53688889,35.064 Z M14.6342222,34.515 L15.0311111,33.051 L23.3087778,33.051 L23.7046111,34.515 L14.6342222,34.515 L14.6342222,34.515 Z M5.03288889,29.2335 L33.3059444,29.2335 L34.3118889,32.5035 L4.028,32.5035 L5.03288889,29.2335 L5.03288889,29.2335 Z" id="Fill-5"></path>
                            <path d="M36.803,35.2515 L1.53688889,35.2515 C1.34266667,35.2515 1.16744444,35.1105 1.06716667,34.875 C0.966888889,34.641 0.960555556,34.3545 1.04922222,34.1115 L3.22472222,28.176 C3.31866667,27.918 3.5055,27.756 3.71133333,27.756 L34.6275,27.756 C34.8322778,27.756 35.0191111,27.9165 35.1141111,28.176 L37.2896111,34.1115 C37.3782778,34.3545 37.3719444,34.6395 37.2716667,34.875 C37.1724444,35.1105 36.9972222,35.2515 36.803,35.2515 L36.803,35.2515 Z M3.71133333,28.131 C3.60472222,28.131 3.50761111,28.215 3.45905556,28.3485 L1.28355556,34.284 C1.23711111,34.4115 1.24027778,34.56 1.29305556,34.6815 C1.34477778,34.803 1.43555556,34.8765 1.53688889,34.8765 L36.803,34.8765 C36.9032778,34.8765 36.9951111,34.803 37.0468333,34.6815 C37.0985556,34.56 37.1017222,34.4115 37.0563333,34.2855 L34.8797778,28.3485 C34.8312222,28.215 34.7341111,28.131 34.6275,28.131 L3.71133333,28.131 L3.71133333,28.131 Z M23.8967222,34.7025 L14.4431667,34.7025 L14.9392778,32.865 L23.3995556,32.865 L23.8967222,34.7025 L23.8967222,34.7025 Z M14.8263333,34.3275 L23.5125,34.3275 L23.218,33.24 L15.1208333,33.24 L14.8263333,34.3275 L14.8263333,34.3275 Z M34.5135,32.6895 L3.82533333,32.6895 L4.94738889,29.046 L33.3925,29.046 L34.5135,32.6895 L34.5135,32.6895 Z M4.22855556,32.316 L34.1102778,32.316 L33.2193889,29.421 L5.11944444,29.421 L4.22855556,32.316 L4.22855556,32.316 Z" id="Fill-6"></path>
                            <path d="M28.4535556,12.0825 L23.5863889,7.7985 C23.1377778,7.404 22.5487778,7.6005 22.2711667,8.2365 C21.9935556,8.874 22.1318333,9.711 22.5804444,10.1055 L26.1228889,13.224 L22.5551111,16.302 C22.1043889,16.6905 21.9608333,17.526 22.2342222,18.1665 C22.4136667,18.5865 22.7282222,18.819 23.0512222,18.819 C23.2201111,18.819 23.3911111,18.756 23.5462778,18.6225 L28.4461667,14.3955 C28.7301111,14.151 28.9042778,13.713 28.9053333,13.242 C28.9063889,12.7695 28.7353889,12.3315 28.4535556,12.0825" id="Fill-7"></path>
                            <path d="M16.1056667,8.247 C15.8312222,7.6065 15.2432778,7.4025 14.7936111,7.7925 L9.89372222,12.018 C9.60977778,12.2625 9.43561111,12.7005 9.43455556,13.1715 C9.43244444,13.644 9.60344444,14.0835 9.88633333,14.3325 L14.7535,18.6165 C14.9097222,18.7545 15.0838889,18.819 15.2559444,18.819 C15.5747222,18.819 15.8871667,18.591 16.0676667,18.177 C16.3452778,17.5395 16.207,16.704 15.7594444,16.308 L12.2159444,13.1895 L15.7847778,10.1115 C16.2355,9.723 16.3790556,8.8875 16.1056667,8.247" id="Fill-8"></path>
                            <path d="M21.2599444,5.4645 C20.7638333,5.2185 20.2181111,5.586 20.0418333,6.2925 L16.6925556,19.788 C16.5173333,20.4945 16.7780556,21.2685 17.2752222,21.519 C17.3807778,21.5715 17.4873889,21.5955 17.5929444,21.5955 C17.9866667,21.5955 18.3550556,21.2475 18.4943889,20.691 L21.8436667,7.1955 C22.0188889,6.489 21.7581667,5.7135 21.2599444,5.4645" id="Fill-9"></path>
                        </g>
                    </g>
                </g>
            </g>
        </g>
    </g>
</svg>