<?xml version="1.0" encoding="UTF-8" standalone="no"?>
<svg width="36px" height="26px" viewBox="0 0 36 26" version="1.1" xmlns="http://www.w3.org/2000/svg" xmlns:xlink="http://www.w3.org/1999/xlink" xmlns:sketch="http://www.bohemiancoding.com/sketch/ns">
    <!-- Generator: Sketch 3.3.2 (12043) - http://www.bohemiancoding.com/sketch -->
    <title>Engineers icon</title>
    <desc>Created with Sketch.</desc>
    <defs></defs>
    <g id="Account-Management" stroke="none" stroke-width="1" fill="none" fill-rule="evenodd" sketch:type="MSPage">
        <g id="Home" sketch:type="MSArtboardGroup" transform="translate(-247.000000, -3075.000000)" fill="#000000">
            <g id="Jobs" sketch:type="MSLayerGroup" transform="translate(169.000000, 2830.000000)">
                <g id="Who-we-are-+-what-we-expect-+-Perks" transform="translate(78.000000, 236.000000)" sketch:type="MSShapeGroup">
                    <g id="Engineers" transform="translate(0.000000, 9.000000)">
                        <g id="Engineers-icon">
                            <path d="M4.234,18.117 L32.088,18.117 C32.562,18.117 32.947,17.733 32.947,17.258 L32.947,1.297 C32.947,0.822 32.562,0.438 32.088,0.438 L4.234,0.438 C3.759,0.438 3.375,0.822 3.375,1.297 L3.375,17.258 C3.375,17.733 3.759,18.117 4.234,18.117 L4.234,18.117 Z M18.161,0.623 C18.389,0.623 18.574,0.808 18.574,1.037 C18.574,1.265 18.389,1.45 18.161,1.45 C17.932,1.45 17.747,1.265 17.747,1.037 C17.747,0.808 17.932,0.623 18.161,0.623 L18.161,0.623 Z M4.569,1.94 C4.569,1.77 4.707,1.632 4.877,1.632 L31.445,1.632 C31.615,1.632 31.752,1.77 31.752,1.94 L31.752,16.616 C31.752,16.786 31.615,16.923 31.445,16.923 L4.877,16.923 C4.707,16.923 4.569,16.786 4.569,16.616 L4.569,1.94 L4.569,1.94 Z" id="Fill-1"></path>
                            <path d="M32.088,18.243 L4.234,18.243 C3.691,18.243 3.25,17.801 3.25,17.258 L3.25,1.296 C3.25,0.754 3.691,0.313 4.234,0.313 L32.088,0.313 C32.63,0.313 33.071,0.754 33.071,1.296 L33.071,17.258 C33.071,17.801 32.63,18.243 32.088,18.243 L32.088,18.243 Z M4.234,0.563 C3.829,0.563 3.5,0.892 3.5,1.296 L3.5,17.258 C3.5,17.663 3.829,17.993 4.234,17.993 L32.088,17.993 C32.492,17.993 32.821,17.663 32.821,17.258 L32.821,1.296 C32.821,0.892 32.492,0.563 32.088,0.563 L18.416,0.563 C18.585,0.654 18.699,0.832 18.699,1.037 C18.699,1.238 18.588,1.415 18.423,1.507 L31.444,1.507 C31.683,1.507 31.877,1.701 31.877,1.94 L31.877,16.616 C31.877,16.855 31.683,17.048 31.444,17.048 L4.877,17.048 C4.638,17.048 4.444,16.855 4.444,16.616 L4.444,1.94 C4.444,1.701 4.638,1.507 4.877,1.507 L17.898,1.507 C17.733,1.415 17.622,1.238 17.622,1.037 C17.622,0.832 17.737,0.654 17.905,0.563 L4.234,0.563 L4.234,0.563 Z M4.877,1.757 C4.776,1.757 4.694,1.839 4.694,1.94 L4.694,16.616 C4.694,16.716 4.776,16.798 4.877,16.798 L31.444,16.798 C31.545,16.798 31.627,16.716 31.627,16.616 L31.627,1.94 C31.627,1.839 31.545,1.757 31.444,1.757 L4.877,1.757 L4.877,1.757 Z M18.161,0.748 C18.002,0.748 17.872,0.877 17.872,1.037 C17.872,1.196 18.002,1.325 18.161,1.325 C18.32,1.325 18.449,1.196 18.449,1.037 C18.449,0.877 18.32,0.748 18.161,0.748 L18.161,0.748 Z" id="Fill-2"></path>
                            <path d="M35.431,23.702 L0.89,23.702 C0.877,23.767 0.87,23.834 0.87,23.903 L0.87,23.923 C0.87,24.476 1.319,24.924 1.871,24.924 L34.45,24.924 C35.003,24.924 35.451,24.476 35.451,23.923 L35.451,23.903 C35.451,23.834 35.444,23.767 35.431,23.702" id="Fill-3"></path>
                            <path d="M34.45,25.049 L1.871,25.049 C1.25,25.049 0.745,24.544 0.745,23.923 C0.745,23.83 0.752,23.754 0.768,23.678 L0.787,23.577 L35.532,23.577 L35.553,23.676 C35.568,23.75 35.576,23.826 35.576,23.903 C35.576,24.544 35.071,25.049 34.45,25.049 L34.45,25.049 Z M0.998,23.827 C0.996,23.852 0.995,23.877 0.995,23.903 C0.995,24.406 1.388,24.799 1.871,24.799 L34.45,24.799 C34.934,24.799 35.326,24.406 35.326,23.923 C35.326,23.887 35.325,23.856 35.322,23.827 L0.998,23.827 L0.998,23.827 Z" id="Fill-4"></path>
                            <path d="M1.456,23.376 L34.866,23.376 C35.162,23.376 35.353,23.062 35.216,22.799 L33.155,18.842 C33.087,18.711 32.952,18.629 32.805,18.629 L3.516,18.629 C3.369,18.629 3.234,18.711 3.166,18.842 L1.105,22.799 C0.968,23.062 1.159,23.376 1.456,23.376 L1.456,23.376 Z M13.864,23.01 L14.24,22.034 L22.082,22.034 L22.457,23.01 L13.864,23.01 L13.864,23.01 Z M4.768,19.489 L31.553,19.489 L32.506,21.669 L3.816,21.669 L4.768,19.489 L4.768,19.489 Z" id="Fill-5"></path>
                            <path d="M34.866,23.501 L1.456,23.501 C1.272,23.501 1.106,23.407 1.011,23.25 C0.916,23.094 0.91,22.903 0.994,22.741 L3.055,18.784 C3.144,18.612 3.321,18.504 3.516,18.504 L32.805,18.504 C32.999,18.504 33.176,18.611 33.266,18.784 L35.327,22.741 C35.411,22.903 35.405,23.093 35.31,23.25 C35.216,23.407 35.05,23.501 34.866,23.501 L34.866,23.501 Z M3.516,18.754 C3.415,18.754 3.323,18.81 3.277,18.899 L1.216,22.856 C1.172,22.941 1.175,23.04 1.225,23.121 C1.274,23.202 1.36,23.251 1.456,23.251 L34.866,23.251 C34.961,23.251 35.048,23.202 35.097,23.121 C35.146,23.04 35.149,22.941 35.106,22.857 L33.044,18.899 C32.998,18.81 32.906,18.754 32.805,18.754 L3.516,18.754 L3.516,18.754 Z M22.639,23.135 L13.683,23.135 L14.153,21.91 L22.168,21.91 L22.639,23.135 L22.639,23.135 Z M14.046,22.885 L22.275,22.885 L21.996,22.16 L14.325,22.16 L14.046,22.885 L14.046,22.885 Z M32.697,21.793 L3.624,21.793 L4.687,19.364 L31.635,19.364 L32.697,21.793 L32.697,21.793 Z M4.006,21.544 L32.315,21.544 L31.471,19.614 L4.85,19.614 L4.006,21.544 L4.006,21.544 Z" id="Fill-6"></path>
                            <path d="M26.956,8.055 L22.345,5.199 C21.92,4.936 21.362,5.067 21.099,5.491 C20.836,5.916 20.967,6.474 21.392,6.737 L24.748,8.816 L21.368,10.868 C20.941,11.127 20.805,11.684 21.064,12.111 C21.234,12.391 21.532,12.546 21.838,12.546 C21.998,12.546 22.16,12.504 22.307,12.415 L26.949,9.597 C27.218,9.434 27.383,9.142 27.384,8.828 C27.385,8.513 27.223,8.221 26.956,8.055" id="Fill-7"></path>
                            <path d="M15.258,5.498 C14.998,5.071 14.441,4.935 14.015,5.195 L9.373,8.012 C9.104,8.175 8.939,8.467 8.938,8.781 C8.936,9.096 9.098,9.389 9.366,9.555 L13.977,12.411 C14.125,12.503 14.29,12.546 14.453,12.546 C14.755,12.546 15.051,12.394 15.222,12.118 C15.485,11.693 15.354,11.136 14.93,10.872 L11.573,8.793 L14.954,6.741 C15.381,6.482 15.517,5.925 15.258,5.498" id="Fill-8"></path>
                            <path d="M20.141,3.643 C19.671,3.479 19.154,3.724 18.987,4.195 L15.814,13.192 C15.648,13.663 15.895,14.179 16.366,14.346 C16.466,14.381 16.567,14.397 16.667,14.397 C17.04,14.397 17.389,14.165 17.521,13.794 L20.694,4.797 C20.86,4.326 20.613,3.809 20.141,3.643" id="Fill-9"></path>
                        </g>
                    </g>
                </g>
            </g>
        </g>
    </g>
</svg>