<?xml version="1.0" encoding="UTF-8" standalone="no"?>
<svg width="37px" height="38px" viewBox="0 0 37 38" version="1.1" xmlns="http://www.w3.org/2000/svg" xmlns:xlink="http://www.w3.org/1999/xlink" xmlns:sketch="http://www.bohemiancoding.com/sketch/ns">
    <!-- Generator: Sketch 3.3.2 (12043) - http://www.bohemiancoding.com/sketch -->
    <title>Entre icon</title>
    <desc>Created with Sketch.</desc>
    <defs></defs>
    <g id="Account-Management" stroke="none" stroke-width="1" fill="none" fill-rule="evenodd" sketch:type="MSPage">
        <g id="Home" sketch:type="MSArtboardGroup" transform="translate(-722.000000, -3067.000000)" fill="#000000">
            <g id="Jobs" sketch:type="MSLayerGroup" transform="translate(169.000000, 2830.000000)">
                <g id="Who-we-are-+-what-we-expect-+-Perks" transform="translate(78.000000, 236.000000)" sketch:type="MSShapeGroup">
                    <g id="Entrepreneuers" transform="translate(474.000000, 0.000000)">
                        <g id="Entre-icon">
                            <path d="M19.6329375,7.228 C12.88675,7.228 7.3993125,12.6891818 7.3993125,19.4030909 C7.3993125,24.1941818 10.1994375,28.3340909 14.25,30.3219091 L14.25,34.0741818 C14.25,35.1378182 15.097875,35.9981818 16.157125,36.036 L16.157125,36.3385455 C16.157125,37.3655455 16.993125,38.1975455 18.0250625,38.1975455 L21.242,38.1975455 C22.2739375,38.1975455 23.1099375,37.3655455 23.1099375,36.3385455 L23.1099375,36.036 C24.1691875,35.9981818 25.0170625,35.1378182 25.0170625,34.0741818 L25.0170625,30.3207273 C29.0688125,28.3340909 31.8689375,24.193 31.8689375,19.4030909 C31.8689375,12.6891818 26.3803125,7.228 19.6329375,7.228 L19.6329375,7.228 Z M21.933125,29.5454545 L17.3339375,29.5454545 C12.6741875,28.4983636 9.1805625,24.3525455 9.1805625,19.4030909 C9.1805625,13.6665455 13.87,9.00072727 19.6329375,9.00072727 C25.39825,9.00072727 30.0876875,13.6665455 30.0876875,19.4030909 C30.0876875,24.3525455 26.5940625,28.4983636 21.933125,29.5454545 L21.933125,29.5454545 Z" id="Fill-1"></path>
                            <path d="M26.0264375,13.5944545 C25.557375,13.4526364 25.058625,13.7161818 24.9149375,14.1853636 L24.1775,16.6092727 C22.743,16.2381818 21.4605,16.0467273 20.3383125,15.9793636 L20.3383125,13.0295455 C20.3383125,12.5402727 19.9393125,12.1431818 19.4476875,12.1431818 C18.9560625,12.1431818 18.5570625,12.5402727 18.5570625,13.0295455 L18.5570625,15.9699091 C17.119,16.0455455 16.055,16.3102727 15.3793125,16.5419091 L14.839,14.1250909 C14.7309375,13.6464545 14.25475,13.3427273 13.7761875,13.4514545 C13.29525,13.5578182 12.9924375,14.0317273 13.0993125,14.5091818 L15.9564375,27.3011818 C16.05025,27.7148182 16.4171875,27.9960909 16.8256875,27.9960909 C16.8898125,27.9960909 16.955125,27.989 17.0204375,27.9736364 C17.5001875,27.8684545 17.803,27.3945455 17.696125,26.9170909 L15.767625,18.2827273 C16.2461875,18.0971818 17.1795625,17.8194545 18.5570625,17.7379091 L18.5570625,20.9347273 C18.5570625,21.424 18.9560625,21.8210909 19.4476875,21.8210909 C19.9393125,21.8210909 20.3383125,21.424 20.3383125,20.9347273 L20.3383125,17.7520909 C21.306125,17.8170909 22.412875,17.9860909 23.6609375,18.3051818 L21.0959375,26.7256364 C20.95225,27.1948182 21.21825,27.69 21.6896875,27.8318182 C21.7751875,27.8578182 21.861875,27.8696364 21.947375,27.8696364 C22.3309375,27.8696364 22.683625,27.6226364 22.8,27.2409091 L26.6201875,14.7006364 C26.7626875,14.2314545 26.4966875,13.7362727 26.0264375,13.5944545" id="Fill-2"></path>
                            <path d="M19.3135,6.32154545 C19.805125,6.32154545 20.204125,5.92445455 20.204125,5.43518182 L20.204125,1.99136364 C20.204125,1.50090909 19.805125,1.105 19.3135,1.105 C18.821875,1.105 18.422875,1.50090909 18.422875,1.99136364 L18.422875,5.43518182 C18.422875,5.92445455 18.821875,6.32154545 19.3135,6.32154545" id="Fill-3"></path>
                            <path d="M36.9063125,18.6124545 L33.4459375,18.6124545 C32.9543125,18.6124545 32.5553125,19.0095455 32.5553125,19.4988182 C32.5553125,19.9892727 32.9543125,20.3851818 33.4459375,20.3851818 L36.9063125,20.3851818 C37.3979375,20.3851818 37.7969375,19.9892727 37.7969375,19.4988182 C37.7969375,19.0095455 37.3979375,18.6124545 36.9063125,18.6124545" id="Fill-4"></path>
                            <path d="M5.469625,18.6124545 L2.0080625,18.6124545 C1.5164375,18.6124545 1.1174375,19.0095455 1.1174375,19.4988182 C1.1174375,19.9892727 1.5164375,20.3851818 2.0080625,20.3851818 L5.469625,20.3851818 C5.96125,20.3851818 6.36025,19.9892727 6.36025,19.4988182 C6.36025,19.0095455 5.96125,18.6124545 5.469625,18.6124545" id="Fill-5"></path>
                            <path d="M35.55375,8.53745455 C35.9325625,8.22545455 35.986,7.66645455 35.6725,7.28945455 C35.356625,6.91127273 34.7973125,6.85927273 34.4173125,7.17127273 L31.751375,9.36709091 C31.37375,9.67909091 31.3203125,10.2380909 31.6338125,10.6150909 C31.8095625,10.8266364 32.0636875,10.9365455 32.3201875,10.9365455 C32.520875,10.9365455 32.7215625,10.8691818 32.8878125,10.7320909 L35.55375,8.53745455" id="Fill-6"></path>
                            <path d="M8.0643125,10.8384545 C8.4205625,10.5004545 8.433625,9.94027273 8.094,9.58572727 L5.70475,7.09327273 C5.3639375,6.73872727 4.7975,6.72690909 4.4448125,7.06490909 C4.0885625,7.40290909 4.0766875,7.96427273 4.415125,8.31881818 L6.8055625,10.8100909 C6.980125,10.9920909 7.21525,11.0842727 7.4491875,11.0842727 C7.67125,11.0842727 7.892125,11.0027273 8.0643125,10.8384545" id="Fill-7"></path>
                        </g>
                    </g>
                </g>
            </g>
        </g>
    </g>
</svg>