<?xml version="1.0" encoding="UTF-8" standalone="no"?>
<svg width="34px" height="34px" viewBox="0 0 34 34" version="1.1" xmlns="http://www.w3.org/2000/svg" xmlns:xlink="http://www.w3.org/1999/xlink" xmlns:sketch="http://www.bohemiancoding.com/sketch/ns">
    <!-- Generator: Sketch 3.3.2 (12043) - http://www.bohemiancoding.com/sketch -->
    <title>Execution icon</title>
    <desc>Created with Sketch.</desc>
    <defs></defs>
    <g id="Account-Management" stroke="none" stroke-width="1" fill="none" fill-rule="evenodd" sketch:type="MSPage">
        <g id="Home" sketch:type="MSArtboardGroup" transform="translate(-654.000000, -1072.000000)" stroke-linecap="round" stroke="#000000" stroke-width="2">
            <g id="Approach" sketch:type="MSLayerGroup" transform="translate(166.000000, 730.000000)">
                <g id="Strategy-+-Execution-+-Validation" transform="translate(485.000000, 185.000000)" sketch:type="MSShapeGroup">
                    <g id="Execution" transform="translate(1.000000, 158.000000)">
                        <path d="M29.641,1.706 C29.843,1.767 30.035,1.837 30.227,1.908 C30.429,1.989 30.611,2.091 30.802,2.191 L31.681,1.413 C31.913,1.212 32.256,1.232 32.469,1.434 L33.549,2.525 C33.781,2.747 33.781,3.11 33.549,3.332 L33.549,3.342 L32.802,4.191 C32.903,4.373 32.993,4.564 33.074,4.756 C33.155,4.948 33.226,5.15 33.286,5.352 L34.458,5.433 C34.761,5.453 34.993,5.705 34.993,5.999 L34.993,7.544 C34.993,7.857 34.741,8.109 34.428,8.109 L33.286,8.19 C33.226,8.392 33.155,8.594 33.074,8.785 C32.993,8.978 32.903,9.169 32.802,9.351 L33.579,10.24 C33.781,10.462 33.761,10.805 33.549,11.017 L32.469,12.108 C32.246,12.33 31.883,12.33 31.66,12.108 L31.651,12.098 L30.802,11.351 C30.611,11.452 30.429,11.553 30.227,11.633 C30.217,11.633 30.206,11.633 30.196,11.643 C30.015,11.714 29.833,11.785 29.641,11.835 L29.56,13.007 C29.54,13.31 29.287,13.542 28.984,13.542 L27.449,13.542 C27.136,13.542 26.884,13.29 26.874,12.977 L26.803,11.835 C26.601,11.775 26.399,11.704 26.207,11.633 C26.015,11.553 25.823,11.452 25.642,11.351 L24.753,12.128 C24.521,12.33 24.188,12.31 23.976,12.108 L22.885,11.017 C22.663,10.795 22.663,10.432 22.885,10.209 L22.895,10.2 L23.632,9.351 C23.531,9.169 23.44,8.978 23.359,8.785 C23.279,8.594 23.208,8.392 23.157,8.19 L21.976,8.109 C21.673,8.089 21.441,7.836 21.441,7.544 L21.441,5.999 C21.441,5.686 21.693,5.433 22.016,5.433 L23.157,5.352 C23.208,5.15 23.279,4.948 23.359,4.756 C23.44,4.564 23.531,4.373 23.632,4.191 L22.864,3.302 C22.663,3.08 22.673,2.736 22.885,2.525 L23.976,1.434 C24.198,1.212 24.561,1.212 24.783,1.434 L24.783,1.444 L25.642,2.191 C25.823,2.091 26.015,1.989 26.207,1.908 C26.399,1.837 26.601,1.767 26.803,1.706 L26.884,0.535 C26.904,0.232 27.157,0 27.449,0 L28.984,0 C29.297,0 29.56,0.252 29.56,0.565 L29.641,1.706 L29.641,1.706 Z M16.916,11.886 C17.26,11.977 17.593,12.098 17.926,12.229 C18.25,12.371 18.573,12.522 18.886,12.704 L20.391,11.381 C20.784,11.048 21.36,11.068 21.713,11.431 L21.723,11.422 L23.561,13.27 C23.945,13.653 23.945,14.269 23.561,14.643 L23.561,14.653 L22.289,16.107 C22.46,16.41 22.623,16.733 22.753,17.067 C22.895,17.39 23.006,17.733 23.107,18.076 L25.107,18.208 C25.621,18.248 26.015,18.672 26.015,19.177 L26.015,21.793 C26.015,22.328 25.581,22.762 25.046,22.762 L23.107,22.894 C23.006,23.237 22.895,23.58 22.753,23.903 C22.623,24.237 22.46,24.55 22.289,24.863 L23.612,26.368 C23.945,26.762 23.925,27.337 23.561,27.7 L21.723,29.548 C21.34,29.923 20.724,29.923 20.34,29.548 L20.34,29.539 L18.886,28.266 C18.573,28.437 18.25,28.599 17.926,28.741 C17.906,28.741 17.886,28.751 17.876,28.761 C17.563,28.882 17.24,28.993 16.916,29.084 L16.775,31.084 C16.745,31.599 16.321,31.992 15.805,31.992 L13.2,31.992 C12.665,31.992 12.231,31.558 12.231,31.033 L12.099,29.084 C11.756,28.993 11.413,28.872 11.089,28.741 C10.756,28.599 10.433,28.437 10.13,28.266 L8.615,29.589 C8.232,29.923 7.646,29.902 7.292,29.539 L7.292,29.548 L5.444,27.7 C5.06,27.317 5.06,26.701 5.444,26.328 L5.454,26.317 L6.727,24.863 C6.545,24.55 6.393,24.237 6.252,23.903 C6.121,23.58 6,23.237 5.909,22.894 L3.909,22.762 C3.394,22.722 3,22.298 3,21.793 L3,19.177 C3,18.642 3.425,18.208 3.959,18.208 L5.909,18.076 C6,17.733 6.121,17.39 6.252,17.067 C6.393,16.733 6.545,16.41 6.727,16.107 L5.404,14.592 C5.06,14.208 5.091,13.633 5.444,13.27 L7.292,11.422 C7.666,11.048 8.282,11.048 8.666,11.422 L8.676,11.431 L10.13,12.704 C10.433,12.522 10.756,12.371 11.089,12.229 C11.413,12.098 11.756,11.977 12.099,11.886 L12.231,9.887 C12.261,9.372 12.695,8.978 13.2,8.978 L15.805,8.978 C16.341,8.978 16.775,9.412 16.785,9.937 L16.916,11.886 L16.916,11.886 Z M14.503,17.037 C16.411,17.037 17.957,18.582 17.957,20.48 C17.957,22.388 16.411,23.934 14.503,23.934 C12.604,23.934 11.049,22.388 11.049,20.48 C11.049,18.582 12.604,17.037 14.503,17.037 L14.503,17.037 Z M28.217,4.736 C29.338,4.736 30.247,5.645 30.247,6.766 C30.247,7.897 29.338,8.806 28.217,8.806 C27.096,8.806 26.187,7.897 26.187,6.766 C26.187,5.645 27.096,4.736 28.217,4.736 L28.217,4.736 Z" id="Execution-icon"></path>
                    </g>
                </g>
            </g>
        </g>
    </g>
</svg>