<?xml version="1.0" encoding="UTF-8" standalone="no"?>
<svg width="41px" height="44px" viewBox="0 0 41 44" version="1.1" xmlns="http://www.w3.org/2000/svg" xmlns:xlink="http://www.w3.org/1999/xlink" xmlns:sketch="http://www.bohemiancoding.com/sketch/ns">
    <!-- Generator: Sketch 3.3.2 (12043) - http://www.bohemiancoding.com/sketch -->
    <title>Impact icon</title>
    <desc>Created with Sketch.</desc>
    <defs></defs>
    <g id="Account-Management" stroke="none" stroke-width="1" fill="none" fill-rule="evenodd" sketch:type="MSPage">
        <g id="Home" sketch:type="MSArtboardGroup" transform="translate(-744.000000, -496.000000)" fill="#FF2FA4">
            <g id="Expanded-Nav" sketch:type="MSLayerGroup" transform="translate(1.000000, 0.000000)">
                <g id="Nav" transform="translate(408.000000, 80.000000)" sketch:type="MSShapeGroup">
                    <g id="Impact" transform="translate(0.000000, 398.000000)">
                        <path d="M371.781,28.7448904 L375.27,25.2548904 C375.557,24.9698904 375.642,24.5388904 375.487,24.1648904 C375.332,23.7918904 374.968,23.5478904 374.563,23.5478904 L370.015,23.5478904 L370.015,18.9998904 C370.015,18.5958904 369.771,18.2308904 369.398,18.0768904 C369.024,17.9208904 368.595,18.0068904 368.308,18.2928904 L364.819,21.7828904 C364.631,21.9698904 364.526,22.2248904 364.526,22.4898904 L364.526,25.0848904 C361.441,22.7788904 357.629,21.3948904 353.49,21.3948904 C343.294,21.3948904 335,29.6888904 335,39.8838904 C335,45.6648904 337.67,50.8298904 341.838,54.2228904 L340.28,60.1558904 C340.14,60.6898904 340.459,61.2368904 340.993,61.3768904 C341.078,61.3998904 341.164,61.4098904 341.248,61.4098904 C341.691,61.4098904 342.096,61.1128904 342.214,60.6638904 L343.579,55.4668904 C346.447,57.2978904 349.842,58.3738904 353.49,58.3738904 C357.137,58.3738904 360.532,57.2978904 363.4,55.4668904 L364.765,60.6638904 C364.883,61.1128904 365.288,61.4098904 365.731,61.4098904 C365.815,61.4098904 365.901,61.3998904 365.986,61.3768904 C366.52,61.2368904 366.839,60.6898904 366.699,60.1558904 L365.141,54.2228904 C369.309,50.8298904 371.979,45.6648904 371.979,39.8838904 C371.979,35.8298904 370.652,32.0878904 368.431,29.0378904 L371.074,29.0378904 C371.339,29.0378904 371.593,28.9318904 371.781,28.7448904 L371.781,28.7448904 Z M368.015,21.4138904 L368.015,24.1338904 L366.526,25.6228904 L366.526,22.9038904 L368.015,21.4138904 L368.015,21.4138904 Z M353.49,56.3738904 C344.397,56.3738904 337,48.9758904 337,39.8838904 C337,30.7918904 344.397,23.3948904 353.49,23.3948904 C357.725,23.3948904 361.579,25.0128904 364.502,27.6468904 L362.507,29.6428904 C360.098,27.5188904 356.946,26.2188904 353.49,26.2188904 C345.955,26.2188904 339.824,32.3488904 339.824,39.8838904 C339.824,47.4188904 345.955,53.5498904 353.49,53.5498904 C361.025,53.5498904 367.155,47.4188904 367.155,39.8838904 C367.155,36.5238904 365.931,33.4478904 363.912,31.0658904 L365.908,29.0698904 C368.435,31.9678904 369.979,35.7448904 369.979,39.8838904 C369.979,48.9758904 362.582,56.3738904 353.49,56.3738904 L353.49,56.3738904 Z M360.284,39.8838904 C360.284,43.6308904 357.236,46.6788904 353.49,46.6788904 C349.743,46.6788904 346.695,43.6308904 346.695,39.8838904 C346.695,36.1378904 349.743,33.0898904 353.49,33.0898904 C355.051,33.0898904 356.487,33.6248904 357.636,34.5138904 L354.924,37.2248904 C354.495,36.9918904 354.011,36.8478904 353.49,36.8478904 C351.815,36.8478904 350.454,38.2098904 350.454,39.8838904 C350.454,41.5578904 351.815,42.9198904 353.49,42.9198904 C355.164,42.9198904 356.526,41.5578904 356.526,39.8838904 C356.526,39.4618904 356.439,39.0608904 356.282,38.6948904 L359.022,35.9548904 C359.813,37.0658904 360.284,38.4198904 360.284,39.8838904 L360.284,39.8838904 Z M359.062,33.0868904 C357.544,31.8398904 355.603,31.0898904 353.49,31.0898904 C348.641,31.0898904 344.695,35.0348904 344.695,39.8838904 C344.695,44.7328904 348.641,48.6788904 353.49,48.6788904 C358.339,48.6788904 362.284,44.7328904 362.284,39.8838904 C362.284,37.8678904 361.594,36.0138904 360.449,34.5288904 L362.497,32.4798904 C364.157,34.4958904 365.155,37.0748904 365.155,39.8838904 C365.155,46.3168904 359.922,51.5498904 353.49,51.5498904 C347.057,51.5498904 341.824,46.3168904 341.824,39.8838904 C341.824,33.4518904 347.057,28.2188904 353.49,28.2188904 C356.395,28.2188904 359.049,29.2928904 361.093,31.0558904 L359.062,33.0868904 L359.062,33.0868904 Z M367.94,27.0368904 L369.429,25.5478904 L372.149,25.5478904 L370.66,27.0368904 L367.94,27.0368904 L367.94,27.0368904 Z" id="Impact-icon"></path>
                    </g>
                </g>
            </g>
        </g>
    </g>
</svg>