<?xml version="1.0" encoding="UTF-8" standalone="no"?>
<svg width="41px" height="29px" viewBox="0 0 41 29" version="1.1" xmlns="http://www.w3.org/2000/svg" xmlns:xlink="http://www.w3.org/1999/xlink" xmlns:sketch="http://www.bohemiancoding.com/sketch/ns">
    <!-- Generator: Sketch 3.3.2 (12043) - http://www.bohemiancoding.com/sketch -->
    <title>Jobs icon</title>
    <desc>Created with Sketch.</desc>
    <defs></defs>
    <g id="Account-Management" stroke="none" stroke-width="1" fill="none" fill-rule="evenodd" sketch:type="MSPage">
        <g id="Home" sketch:type="MSArtboardGroup" transform="translate(-743.000000, -424.000000)" fill="#F27490">
            <g id="Expanded-Nav" sketch:type="MSLayerGroup" transform="translate(0.000000, 1.000000)">
                <g id="Nav" transform="translate(408.000000, 80.000000)" sketch:type="MSShapeGroup">
                    <g id="Jobs" transform="translate(0.000000, 312.000000)">
                        <g id="Jobs-icon" transform="translate(335.000000, 31.000000)">
                            <path d="M36.55,3.934 L27.337,3.934 L27.337,2.763 C27.337,1.252 26.107,0.022 24.596,0.022 L16.508,0.022 C14.996,0.022 13.767,1.252 13.767,2.763 L13.767,3.934 L4.554,3.934 C2.192,3.934 0.27,5.855 0.27,8.217 L0.27,23.895 C0.27,26.257 2.192,28.179 4.554,28.179 L36.55,28.179 C38.912,28.179 40.833,26.257 40.833,23.895 L40.833,8.217 C40.833,5.855 38.912,3.934 36.55,3.934 L36.55,3.934 Z M31.01,23.397 L32.141,23.397 L32.141,26.179 L8.962,26.179 L8.962,23.397 L10.122,23.397 C10.674,23.397 11.122,22.949 11.122,22.397 C11.122,21.845 10.674,21.397 10.122,21.397 L8.962,21.397 L8.962,5.934 L32.141,5.934 L32.141,21.397 L31.01,21.397 C30.458,21.397 30.01,21.845 30.01,22.397 C30.01,22.949 30.458,23.397 31.01,23.397 L31.01,23.397 Z M15.767,2.763 C15.767,2.354 16.099,2.022 16.508,2.022 L24.596,2.022 C25.004,2.022 25.337,2.354 25.337,2.763 L25.337,3.934 L15.767,3.934 L15.767,2.763 L15.767,2.763 Z M2.27,23.895 L2.27,8.217 C2.27,6.958 3.294,5.934 4.554,5.934 L6.962,5.934 L6.962,21.397 L5.859,21.397 C5.307,21.397 4.859,21.845 4.859,22.397 C4.859,22.949 5.307,23.397 5.859,23.397 L6.962,23.397 L6.962,26.179 L4.554,26.179 C3.294,26.179 2.27,25.155 2.27,23.895 L2.27,23.895 Z M38.833,23.895 C38.833,25.155 37.809,26.179 36.55,26.179 L34.141,26.179 L34.141,23.397 L35.272,23.397 C35.825,23.397 36.273,22.949 36.273,22.397 C36.273,21.845 35.825,21.397 35.272,21.397 L34.141,21.397 L34.141,5.934 L36.55,5.934 C37.809,5.934 38.833,6.958 38.833,8.217 L38.833,23.895 L38.833,23.895 Z" id="Fill-1"></path>
                            <path d="M19.177,8.731 L11.476,8.731 C10.924,8.731 10.476,9.179 10.476,9.731 C10.476,10.283 10.924,10.731 11.476,10.731 L19.177,10.731 C19.729,10.731 20.177,10.283 20.177,9.731 C20.177,9.179 19.729,8.731 19.177,8.731" id="Fill-2"></path>
                            <path d="M16.426,12.416 L11.476,12.416 C10.924,12.416 10.476,12.863 10.476,13.416 C10.476,13.968 10.924,14.415 11.476,14.415 L16.426,14.415 C16.978,14.415 17.426,13.968 17.426,13.416 C17.426,12.863 16.978,12.416 16.426,12.416" id="Fill-3"></path>
                        </g>
                    </g>
                </g>
            </g>
        </g>
    </g>
</svg>