<?xml version="1.0" encoding="UTF-8" standalone="no"?>
<svg width="40px" height="40px" viewBox="0 0 40 40" version="1.1" xmlns="http://www.w3.org/2000/svg" xmlns:xlink="http://www.w3.org/1999/xlink" xmlns:sketch="http://www.bohemiancoding.com/sketch/ns">
    <!-- Generator: Sketch 3.3.2 (12043) - http://www.bohemiancoding.com/sketch -->
    <title>Imported Layers</title>
    <desc>Created with Sketch.</desc>
    <defs></defs>
    <g id="Account-Management" stroke="none" stroke-width="1" fill="none" fill-rule="evenodd" sketch:type="MSPage">
        <g id="Home" sketch:type="MSArtboardGroup" transform="translate(-100.000000, -1780.000000)" fill="#000000">
            <g id="Team" sketch:type="MSLayerGroup" transform="translate(100.000000, 1436.000000)">
                <g id="team-Slider" transform="translate(0.000000, 168.000000)" sketch:type="MSShapeGroup">
                    <g id="SLider" transform="translate(0.000000, 175.000000)">
                        <g id="Imported-Layers" transform="translate(20.000000, 21.000000) rotate(-180.000000) translate(-20.000000, -21.000000) translate(0.000000, 1.000000)">
                            <path d="M19.9988235,0.913142857 C9.09058824,0.913142857 0.216470588,9.53371429 0.216470588,20.1302857 C0.216470588,30.728 9.09058824,39.3485714 19.9988235,39.3485714 C30.9082353,39.3485714 39.7811765,30.728 39.7811765,20.1302857 C39.7811765,9.53371429 30.9082353,0.913142857 19.9988235,0.913142857 L19.9988235,0.913142857 Z M19.9988235,37.0628571 C10.3882353,37.0628571 2.56941176,29.4662857 2.56941176,20.1302857 C2.56941176,10.7942857 10.3882353,3.19885714 19.9988235,3.19885714 C29.6094118,3.19885714 37.4294118,10.7942857 37.4294118,20.1302857 C37.4294118,29.4662857 29.6094118,37.0628571 19.9988235,37.0628571 L19.9988235,37.0628571 Z" id="Fill-1"></path>
                            <path d="M27.4247059,20.1234286 L16.5917647,9.59885714 L14.9270588,11.2148571 L25.7611765,21.7394286 L27.4247059,20.1234286" id="Fill-2"></path>
                            <path d="M16.5917647,30.6628571 L27.4247059,20.1382857 L25.7611765,18.5222857 L14.9270588,29.0468571 L16.5917647,30.6628571" id="Fill-3"></path>
                        </g>
                    </g>
                </g>
            </g>
        </g>
    </g>
</svg>