<?xml version="1.0" encoding="UTF-8" standalone="no"?>
<svg width="32px" height="33px" viewBox="0 0 32 33" version="1.1" xmlns="http://www.w3.org/2000/svg" xmlns:xlink="http://www.w3.org/1999/xlink" xmlns:sketch="http://www.bohemiancoding.com/sketch/ns">
    <!-- Generator: Sketch 3.3.2 (12043) - http://www.bohemiancoding.com/sketch -->
    <title>process icon</title>
    <desc>Created with Sketch.</desc>
    <defs></defs>
    <g id="Account-Management" stroke="none" stroke-width="1" fill="none" fill-rule="evenodd" sketch:type="MSPage">
        <g id="Home" sketch:type="MSArtboardGroup" transform="translate(-164.000000, -3904.000000)" fill="#000000">
            <g id="Impact" sketch:type="MSLayerGroup" transform="translate(164.000000, 3531.000000)">
                <g id="Who-we-are-+-what-we-expect-+-Perks-Copy" transform="translate(0.000000, 373.000000)" sketch:type="MSShapeGroup">
                    <g id="Process">
                        <path d="M31.834,5.4439 L29.0334,6.4757 C26.3802,2.5707 21.9043,0 16.8366,0 C12.3838,0 8.3952,1.9932 5.6903,5.1249 L0,7.2963 L3.003,9.7075 C2.4288,11.2794 2.0999,12.969 2.0999,14.7378 C2.0999,22.0726 7.4921,28.1556 14.5178,29.2732 L18.9222,32.5952 L19.3138,29.249 C26.2625,28.0665 31.5744,22.0176 31.5744,14.7378 C31.5744,13.3331 31.3643,11.9779 30.9958,10.6909 L31.834,5.4439 L31.834,5.4439 Z M19.7186,25.7928 L20.0959,22.5698 L13.2264,25.5816 C8.6856,24.0647 5.3999,19.7813 5.3999,14.7378 C5.3999,13.7654 5.5352,12.826 5.764,11.9251 L7.8716,13.6169 L8.9243,6.4988 C10.9802,4.5221 13.7665,3.3 16.8366,3.3 C20.4732,3.3 23.7116,5.0116 25.8082,7.6637 L22.4609,8.8979 L28.2183,13.6301 C28.2535,13.9953 28.2744,14.3638 28.2744,14.7378 C28.2744,20.0464 24.6323,24.5102 19.7186,25.7928 L19.7186,25.7928 Z" id="process-icon"></path>
                    </g>
                </g>
            </g>
        </g>
    </g>
</svg>