<?xml version="1.0" encoding="UTF-8" standalone="no"?>
<svg width="37px" height="38px" viewBox="0 0 37 38" version="1.1" xmlns="http://www.w3.org/2000/svg" xmlns:xlink="http://www.w3.org/1999/xlink" xmlns:sketch="http://www.bohemiancoding.com/sketch/ns">
    <!-- Generator: Sketch 3.3.2 (12043) - http://www.bohemiancoding.com/sketch -->
    <title>Imported Layers</title>
    <desc>Created with Sketch.</desc>
    <defs></defs>
    <g id="Account-Management" stroke="none" stroke-width="1" fill="none" fill-rule="evenodd" sketch:type="MSPage">
        <g id="Home" sketch:type="MSArtboardGroup" transform="translate(-651.000000, -915.000000)" fill="#000000">
            <g id="Approach" sketch:type="MSLayerGroup" transform="translate(166.000000, 730.000000)">
                <g id="Strategy-+-Execution-+-Validation" transform="translate(485.000000, 185.000000)" sketch:type="MSShapeGroup">
                    <g id="Strategy">
                        <g id="Imported-Layers">
                            <path d="M7.747,23.815 C3.902,23.815 0.774,26.943 0.774,30.788 C0.774,34.632 3.902,37.76 7.747,37.76 C11.592,37.76 14.72,34.632 14.72,30.788 C14.72,26.943 11.592,23.815 7.747,23.815 L7.747,23.815 Z M7.747,34.76 C5.557,34.76 3.774,32.978 3.774,30.788 C3.774,28.598 5.557,26.815 7.747,26.815 C9.938,26.815 11.72,28.598 11.72,30.788 C11.72,32.978 9.938,34.76 7.747,34.76 L7.747,34.76 Z" id="Fill-1"></path>
                            <path d="M0.867,13.073 C1.161,13.374 1.55,13.524 1.94,13.524 C2.318,13.524 2.696,13.382 2.988,13.097 L6.941,9.232 L10.807,13.185 C11.101,13.486 11.49,13.637 11.879,13.637 C12.258,13.637 12.636,13.494 12.928,13.209 C13.521,12.63 13.531,11.681 12.952,11.088 L9.086,7.134 L13.04,3.269 C13.632,2.689 13.643,1.74 13.064,1.147 C12.484,0.555 11.535,0.546 10.942,1.124 L6.989,4.989 L3.124,1.036 C2.544,0.443 1.595,0.434 1.002,1.013 C0.41,1.592 0.399,2.541 0.979,3.134 L4.844,7.087 L0.891,10.952 C0.298,11.531 0.288,12.48 0.867,13.073" id="Fill-2"></path>
                            <path d="M32.145,29.749 L36.099,25.883 C36.691,25.304 36.702,24.354 36.122,23.762 C35.544,23.169 34.594,23.159 34.001,23.738 L30.048,27.604 L26.182,23.65 C25.603,23.058 24.654,23.049 24.061,23.627 C23.469,24.206 23.458,25.155 24.038,25.748 L27.903,29.701 L23.95,33.566 C23.357,34.145 23.347,35.095 23.926,35.687 C24.22,35.988 24.609,36.139 24.998,36.139 C25.377,36.139 25.755,35.996 26.047,35.711 L30,31.846 L33.866,35.799 C34.159,36.1 34.548,36.25 34.938,36.25 C35.316,36.25 35.695,36.107 35.987,35.822 C36.579,35.243 36.59,34.294 36.01,33.701 L32.145,29.749" id="Fill-3"></path>
                            <path d="M24.481,20.995 L34.639,6.102 L16.765,6.262 L19.919,12.284 C14.78,15.91 12.083,20.277 11.937,20.518 C11.507,21.226 11.734,22.148 12.442,22.578 C12.685,22.725 12.954,22.795 13.218,22.795 C13.726,22.795 14.22,22.538 14.502,22.072 C14.534,22.021 16.886,18.214 21.327,14.972 L24.481,20.995" id="Fill-4"></path>
                        </g>
                    </g>
                </g>
            </g>
        </g>
    </g>
</svg>