<?xml version="1.0" encoding="UTF-8" standalone="no"?>
<svg width="36px" height="35px" viewBox="0 0 36 35" version="1.1" xmlns="http://www.w3.org/2000/svg" xmlns:xlink="http://www.w3.org/1999/xlink" xmlns:sketch="http://www.bohemiancoding.com/sketch/ns">
    <!-- Generator: Sketch 3.3.2 (12043) - http://www.bohemiancoding.com/sketch -->
    <title>ways icon</title>
    <desc>Created with Sketch.</desc>
    <defs></defs>
    <g id="Account-Management" stroke="none" stroke-width="1" fill="none" fill-rule="evenodd" sketch:type="MSPage">
        <g id="Home" sketch:type="MSArtboardGroup" transform="translate(-797.000000, -3905.000000)" fill="#000000">
            <g id="Impact" sketch:type="MSLayerGroup" transform="translate(164.000000, 3531.000000)">
                <g id="Who-we-are-+-what-we-expect-+-Perks-Copy" transform="translate(0.000000, 373.000000)" sketch:type="MSShapeGroup">
                    <g id="Ways" transform="translate(633.000000, 1.000000)">
                        <g id="ways-icon">
                            <path d="M11.175,23.931 L16.666,25.762 L16.011,20.011 L14.574,21.176 C11.139,17.457 10.828,10.796 10.826,10.783 C10.826,4.345 16.333,3.898 16.898,3.87 C19.037,3.87 20.697,4.46 21.831,5.623 C23.712,7.553 23.674,10.524 23.673,10.598 C23.647,11.424 24.295,12.114 25.121,12.143 C25.939,12.187 26.644,11.524 26.671,10.694 C26.677,10.522 26.782,6.429 24.003,3.554 C22.283,1.775 19.894,0.871 16.848,0.871 L16.843,0.871 C13.725,0.986 7.826,3.207 7.827,10.839 C7.839,11.161 8.17,18.507 12.243,23.066 L11.175,23.931" id="Fill-1"></path>
                            <path d="M24.454,23.259 L22.931,17.675 L18.509,21.411 L20.032,21.884 C18.725,26.686 13.541,30.504 13.532,30.512 C8.178,34.082 4.749,29.751 4.412,29.297 C3.225,27.517 2.795,25.81 3.133,24.221 C3.696,21.577 6.201,19.959 6.25,19.928 C6.951,19.49 7.167,18.568 6.731,17.865 C6.295,17.161 5.37,16.944 4.666,17.38 C4.519,17.471 1.056,19.654 0.206,23.562 C-0.32,25.981 0.256,28.471 1.948,31.007 C3.172,32.702 5.873,34.91 9.431,34.91 C11.184,34.91 13.146,34.374 15.242,32.977 C15.499,32.791 21.266,28.562 22.899,22.776 L24.454,23.259" id="Fill-2"></path>
                            <path d="M30.301,15.316 C30.02,15.174 23.688,12.018 17.822,13.159 L17.589,11.838 L13.323,15.75 L18.668,17.97 L18.342,16.117 C23.192,15.138 28.882,17.962 28.894,17.966 C34.522,21.092 32.238,26.123 31.988,26.631 C30.95,28.501 29.629,29.665 28.061,30.092 C25.445,30.802 22.848,29.302 22.817,29.285 C22.111,28.866 21.191,29.093 20.764,29.802 C20.338,30.512 20.568,31.434 21.278,31.86 C21.397,31.932 23.687,33.283 26.583,33.283 C27.298,33.283 28.05,33.2 28.815,32.996 C31.208,32.356 33.158,30.704 34.637,28.039 C36.051,25.256 36.974,19.022 30.301,15.316" id="Fill-3"></path>
                        </g>
                    </g>
                </g>
            </g>
        </g>
    </g>
</svg>