<?xml version="1.0" encoding="UTF-8" standalone="no"?>
<svg width="28px" height="34px" viewBox="0 0 28 34" version="1.1" xmlns="http://www.w3.org/2000/svg" xmlns:xlink="http://www.w3.org/1999/xlink" xmlns:sketch="http://www.bohemiancoding.com/sketch/ns">
    <!-- Generator: Sketch 3.3.2 (12043) - http://www.bohemiancoding.com/sketch -->
    <title>who icon</title>
    <desc>Created with Sketch.</desc>
    <defs></defs>
    <g id="Account-Management" stroke="none" stroke-width="1" fill="none" fill-rule="evenodd" sketch:type="MSPage">
        <g id="Home" sketch:type="MSArtboardGroup" transform="translate(-478.000000, -3905.000000)" fill="#000000">
            <g id="Impact" sketch:type="MSLayerGroup" transform="translate(164.000000, 3531.000000)">
                <g id="Who-we-are-+-what-we-expect-+-Perks-Copy" transform="translate(0.000000, 373.000000)" sketch:type="MSShapeGroup">
                    <g id="Who" transform="translate(314.000000, 1.000000)">
                        <path d="M20.663,14.772 L19.678,14.772 C20.851,13.206 21.564,11.175 21.564,8.953 C21.564,4.016 18.061,0 13.754,0 C13.689,0 13.625,0.007 13.562,0.011 C13.498,0.007 13.434,0 13.369,0 C9.063,0 5.559,4.016 5.559,8.953 C5.559,11.175 6.273,13.206 7.445,14.772 L6.46,14.772 C2.898,14.772 0,17.67 0,21.231 L0,23.428 C0,26.338 1.855,28.547 4.204,31.344 C4.541,31.745 4.891,32.162 5.25,32.599 C5.548,32.961 5.992,33.17 6.46,33.17 L20.663,33.17 C21.131,33.17 21.575,32.961 21.873,32.599 C22.232,32.162 22.583,31.745 22.919,31.344 C25.268,28.547 27.123,26.338 27.123,23.428 L27.123,21.231 C27.123,17.67 24.225,14.772 20.663,14.772 L20.663,14.772 Z M13.369,3.133 C13.419,3.133 13.466,3.143 13.514,3.152 L13.514,3.164 C13.53,3.162 13.546,3.16 13.562,3.157 C13.577,3.16 13.593,3.162 13.609,3.164 L13.609,3.152 C13.657,3.143 13.704,3.133 13.754,3.133 C16.333,3.133 18.431,5.744 18.431,8.953 C18.431,12.162 16.333,14.772 13.754,14.772 C13.704,14.772 13.657,14.762 13.609,14.754 L13.609,14.742 C13.593,14.743 13.577,14.746 13.562,14.748 C13.546,14.746 13.53,14.743 13.514,14.742 L13.514,14.754 C13.466,14.762 13.419,14.772 13.369,14.772 C10.79,14.772 8.692,12.162 8.692,8.953 C8.692,5.744 10.79,3.133 13.369,3.133 L13.369,3.133 Z M23.99,23.428 C23.99,25.197 22.535,26.93 20.519,29.329 C20.326,29.56 20.128,29.795 19.927,30.037 L7.196,30.037 C6.995,29.795 6.797,29.56 6.604,29.329 C4.589,26.93 3.134,25.197 3.134,23.428 L3.134,21.231 C3.134,19.398 4.626,17.906 6.46,17.906 L20.663,17.906 C22.497,17.906 23.99,19.398 23.99,21.231 L23.99,23.428 L23.99,23.428 Z" id="who-icon"></path>
                    </g>
                </g>
            </g>
        </g>
    </g>
</svg>