<?xml version="1.0" encoding="UTF-8" standalone="no"?>
<svg width="43px" height="42px" viewBox="0 0 43 42" version="1.1" xmlns="http://www.w3.org/2000/svg" xmlns:xlink="http://www.w3.org/1999/xlink" xmlns:sketch="http://www.bohemiancoding.com/sketch/ns">
    <!-- Generator: Sketch 3.3.2 (12043) - http://www.bohemiancoding.com/sketch -->
    <title>real icon</title>
    <desc>Created with Sketch.</desc>
    <defs></defs>
    <g id="Account-Management" stroke="none" stroke-width="1" fill="none" fill-rule="evenodd" sketch:type="MSPage">
        <g id="Home" sketch:type="MSArtboardGroup" transform="translate(-743.000000, -80.000000)" fill="#FF2FA4">
            <g id="Expanded-Nav" sketch:type="MSLayerGroup" transform="translate(1.000000, 0.000000)">
                <g id="Nav" transform="translate(408.000000, 80.000000)" sketch:type="MSShapeGroup">
                    <g id="Why-Real" transform="translate(76.000000, 0.000000)">
                        <g id="real-icon" transform="translate(258.000000, 0.000000)">
                            <path d="M20.934,14.316 L20.934,12.295 L17.115,12.295 L17.115,31.278 L20.934,31.278 L20.934,20.008 C20.934,19.234 21.058,18.585 21.308,18.061 C21.558,17.537 21.876,17.113 22.263,16.788 C22.65,16.464 23.074,16.232 23.536,16.095 C23.998,15.958 24.428,15.889 24.828,15.889 C25.227,15.889 25.614,15.964 25.989,16.114 L25.989,12.07 C24.89,12.07 23.967,12.27 23.218,12.669 C22.469,13.069 21.707,13.618 20.934,14.316" id="Fill-1"></path>
                            <path d="M21.552,0.367 C10.092,0.367 0.769,9.69 0.769,21.149 C0.769,32.609 10.092,41.932 21.552,41.932 C33.011,41.932 42.334,32.609 42.334,21.149 C42.334,9.69 33.011,0.367 21.552,0.367 L21.552,0.367 Z M21.552,38.932 C11.746,38.932 3.769,30.955 3.769,21.149 C3.769,11.344 11.746,3.367 21.552,3.367 C31.357,3.367 39.334,11.344 39.334,21.149 C39.334,30.955 31.357,38.932 21.552,38.932 L21.552,38.932 Z" id="Fill-2"></path>
                        </g>
                    </g>
                </g>
            </g>
        </g>
    </g>
</svg>